%TF.GenerationSoftware,KiCad,Pcbnew,10.0.6*%
%TF.CreationDate,2026-10-05T10:35:56+00:00*%
%TF.ProjectId,dual_can_esp32,6475616c-5f63-4616-9e5f-65737033322e,A*%
%TF.SameCoordinates,Original*%
%TF.FileFunction,Soldermask,Top*%
%TF.FilePolarity,Negative*%
%FSLAX46Y46*%
G04 Gerber Fmt 4.6, Leading zero omitted, Abs format (unit mm)*
G04 Created by KiCad (PCBNEW 10.0.6) date 2026-10-05 10:35:56*
%MOMM*%
%LPD*%
G01*
G04 APERTURE LIST*
G04 Aperture macros list*
%AMRoundRect*
0 Rectangle with rounded corners*
0 $1 Rounding radius*
0 $2 $3 $4 $5 $6 $7 $8 $9 X,Y pos of 4 corners*
0 Add a 4 corners polygon primitive as box body*
4,1,4,$2,$3,$4,$5,$6,$7,$8,$9,$2,$3,0*
0 Add four circle primitives for the rounded corners*
1,1,$1+$1,$2,$3*
1,1,$1+$1,$4,$5*
1,1,$1+$1,$6,$7*
1,1,$1+$1,$8,$9*
0 Add four rect primitives between the rounded corners*
20,1,$1+$1,$2,$3,$4,$5,0*
20,1,$1+$1,$4,$5,$6,$7,0*
20,1,$1+$1,$6,$7,$8,$9,0*
20,1,$1+$1,$8,$9,$2,$3,0*%
%AMFreePoly0*
4,1,13,-0.125000,0.000000,-0.005000,0.000000,-0.005000,0.005000,0.005000,0.005000,0.005000,0.000000,0.125000,0.000000,0.125000,0.250000,0.475000,0.250000,0.475000,-0.250000,-0.475000,-0.250000,-0.475000,0.250000,-0.125000,0.250000,-0.125000,0.000000,-0.125000,0.000000,$1*%
%AMFreePoly1*
4,1,13,0.475000,-0.250000,0.125000,-0.250000,0.125000,0.000000,0.005000,0.000000,0.005000,-0.005000,-0.005000,-0.005000,-0.005000,0.000000,-0.125000,0.000000,-0.125000,-0.250000,-0.475000,-0.250000,-0.475000,0.250000,0.475000,0.250000,0.475000,-0.250000,0.475000,-0.250000,$1*%
%AMFreePoly2*
4,1,23,0.500000,-0.750000,0.000000,-0.750000,0.000000,-0.745722,-0.065263,-0.745722,-0.191342,-0.711940,-0.304381,-0.646677,-0.396677,-0.554381,-0.461940,-0.441342,-0.495722,-0.315263,-0.495722,-0.250000,-0.500000,-0.250000,-0.500000,0.250000,-0.495722,0.250000,-0.495722,0.315263,-0.461940,0.441342,-0.396677,0.554381,-0.304381,0.646677,-0.191342,0.711940,-0.065263,0.745722,0.000000,0.745722,
0.000000,0.750000,0.500000,0.750000,0.500000,-0.750000,0.500000,-0.750000,$1*%
%AMFreePoly3*
4,1,23,0.000000,0.745722,0.065263,0.745722,0.191342,0.711940,0.304381,0.646677,0.396677,0.554381,0.461940,0.441342,0.495722,0.315263,0.495722,0.250000,0.500000,0.250000,0.500000,-0.250000,0.495722,-0.250000,0.495722,-0.315263,0.461940,-0.441342,0.396677,-0.554381,0.304381,-0.646677,0.191342,-0.711940,0.065263,-0.745722,0.000000,-0.745722,0.000000,-0.750000,-0.500000,-0.750000,
-0.500000,0.750000,0.000000,0.750000,0.000000,0.745722,0.000000,0.745722,$1*%
G04 Aperture macros list end*
%ADD10C,1.000000*%
%ADD11C,3.200000*%
%ADD12RoundRect,0.200000X-0.200000X-0.275000X0.200000X-0.275000X0.200000X0.275000X-0.200000X0.275000X0*%
%ADD13RoundRect,0.200000X0.275000X-0.200000X0.275000X0.200000X-0.275000X0.200000X-0.275000X-0.200000X0*%
%ADD14RoundRect,0.150000X0.150000X-0.587500X0.150000X0.587500X-0.150000X0.587500X-0.150000X-0.587500X0*%
%ADD15R,3.400000X0.980000*%
%ADD16RoundRect,0.225000X-0.225000X-0.250000X0.225000X-0.250000X0.225000X0.250000X-0.225000X0.250000X0*%
%ADD17C,3.600000*%
%ADD18C,2.700000*%
%ADD19RoundRect,0.225000X0.225000X0.250000X-0.225000X0.250000X-0.225000X-0.250000X0.225000X-0.250000X0*%
%ADD20RoundRect,0.250000X-0.475000X0.250000X-0.475000X-0.250000X0.475000X-0.250000X0.475000X0.250000X0*%
%ADD21RoundRect,0.250000X-0.250000X-0.475000X0.250000X-0.475000X0.250000X0.475000X-0.250000X0.475000X0*%
%ADD22RoundRect,0.150000X-0.512500X-0.150000X0.512500X-0.150000X0.512500X0.150000X-0.512500X0.150000X0*%
%ADD23RoundRect,0.150000X-0.825000X-0.150000X0.825000X-0.150000X0.825000X0.150000X-0.825000X0.150000X0*%
%ADD24RoundRect,0.250000X-1.050000X-1.050000X1.050000X-1.050000X1.050000X1.050000X-1.050000X1.050000X0*%
%ADD25C,2.600000*%
%ADD26RoundRect,0.250000X0.250000X0.475000X-0.250000X0.475000X-0.250000X-0.475000X0.250000X-0.475000X0*%
%ADD27RoundRect,0.225000X0.250000X-0.225000X0.250000X0.225000X-0.250000X0.225000X-0.250000X-0.225000X0*%
%ADD28RoundRect,0.030000X-0.770000X-0.045000X0.770000X-0.045000X0.770000X0.045000X-0.770000X0.045000X0*%
%ADD29FreePoly0,0.000000*%
%ADD30FreePoly1,0.000000*%
%ADD31RoundRect,0.075000X-0.250000X-0.075000X0.250000X-0.075000X0.250000X0.075000X-0.250000X0.075000X0*%
%ADD32RoundRect,0.075000X-0.210000X-0.075000X0.210000X-0.075000X0.210000X0.075000X-0.210000X0.075000X0*%
%ADD33RoundRect,0.075000X-0.075000X-0.210000X0.075000X-0.210000X0.075000X0.210000X-0.075000X0.210000X0*%
%ADD34RoundRect,0.075000X-0.075000X-0.250000X0.075000X-0.250000X0.075000X0.250000X-0.075000X0.250000X0*%
%ADD35RoundRect,0.218750X-0.218750X-0.256250X0.218750X-0.256250X0.218750X0.256250X-0.218750X0.256250X0*%
%ADD36RoundRect,0.200000X-0.275000X0.200000X-0.275000X-0.200000X0.275000X-0.200000X0.275000X0.200000X0*%
%ADD37RoundRect,0.250000X-0.325000X-1.100000X0.325000X-1.100000X0.325000X1.100000X-0.325000X1.100000X0*%
%ADD38RoundRect,0.250000X0.400000X-0.550000X0.400000X0.550000X-0.400000X0.550000X-0.400000X-0.550000X0*%
%ADD39C,0.650000*%
%ADD40RoundRect,0.150000X-0.425000X0.150000X-0.425000X-0.150000X0.425000X-0.150000X0.425000X0.150000X0*%
%ADD41RoundRect,0.075000X-0.500000X0.075000X-0.500000X-0.075000X0.500000X-0.075000X0.500000X0.075000X0*%
%ADD42O,2.100000X1.000000*%
%ADD43O,1.800000X1.000000*%
%ADD44FreePoly2,0.000000*%
%ADD45FreePoly3,0.000000*%
%ADD46RoundRect,0.150000X-0.587500X-0.150000X0.587500X-0.150000X0.587500X0.150000X-0.587500X0.150000X0*%
%ADD47RoundRect,0.250000X-0.800000X-0.450000X0.800000X-0.450000X0.800000X0.450000X-0.800000X0.450000X0*%
%ADD48RoundRect,0.250000X-1.500000X-1.000000X1.500000X-1.000000X1.500000X1.000000X-1.500000X1.000000X0*%
%ADD49R,1.100000X3.700000*%
%ADD50RoundRect,0.250000X1.100000X-0.325000X1.100000X0.325000X-1.100000X0.325000X-1.100000X-0.325000X0*%
%ADD51R,1.500000X0.900000*%
%ADD52R,0.900000X1.500000*%
%ADD53R,0.900000X0.900000*%
%ADD54C,0.600000*%
%ADD55RoundRect,0.150000X-0.875000X-0.150000X0.875000X-0.150000X0.875000X0.150000X-0.875000X0.150000X0*%
%ADD56RoundRect,0.112500X0.112500X-0.187500X0.112500X0.187500X-0.112500X0.187500X-0.112500X-0.187500X0*%
%ADD57RoundRect,0.062500X0.350000X0.062500X-0.350000X0.062500X-0.350000X-0.062500X0.350000X-0.062500X0*%
%ADD58RoundRect,0.062500X0.062500X0.350000X-0.062500X0.350000X-0.062500X-0.350000X0.062500X-0.350000X0*%
%ADD59R,1.680000X1.680000*%
%ADD60RoundRect,0.200000X0.200000X0.275000X-0.200000X0.275000X-0.200000X-0.275000X0.200000X-0.275000X0*%
%ADD61RoundRect,0.250000X-0.350000X-0.625000X0.350000X-0.625000X0.350000X0.625000X-0.350000X0.625000X0*%
%ADD62O,1.200000X1.750000*%
%ADD63RoundRect,0.062500X-0.337500X-0.062500X0.337500X-0.062500X0.337500X0.062500X-0.337500X0.062500X0*%
%ADD64RoundRect,0.062500X-0.062500X-0.337500X0.062500X-0.337500X0.062500X0.337500X-0.062500X0.337500X0*%
%ADD65R,3.350000X3.350000*%
%ADD66C,0.350000*%
%ADD67O,1.700000X0.600000*%
%ADD68O,1.400000X0.600000*%
%ADD69C,0.200000*%
G04 APERTURE END LIST*
%TO.C,JP41*%
G36*
X99850000Y-55250000D02*
G01*
X100150000Y-55250000D01*
X100150000Y-56750000D01*
X99850000Y-56750000D01*
X99850000Y-55250000D01*
G37*
%TO.C,JP20*%
G36*
X104850000Y-36250000D02*
G01*
X105150000Y-36250000D01*
X105150000Y-37750000D01*
X104850000Y-37750000D01*
X104850000Y-36250000D01*
G37*
%TO.C,JP62*%
G36*
X81850000Y-77250000D02*
G01*
X82150000Y-77250000D01*
X82150000Y-78750000D01*
X81850000Y-78750000D01*
X81850000Y-77250000D01*
G37*
%TO.C,JP61*%
G36*
X98850000Y-67250000D02*
G01*
X99150000Y-67250000D01*
X99150000Y-68750000D01*
X98850000Y-68750000D01*
X98850000Y-67250000D01*
G37*
%TO.C,JP40*%
G36*
X94850000Y-55250000D02*
G01*
X95150000Y-55250000D01*
X95150000Y-56750000D01*
X94850000Y-56750000D01*
X94850000Y-55250000D01*
G37*
%TO.C,JP60*%
G36*
X94850000Y-67250000D02*
G01*
X95150000Y-67250000D01*
X95150000Y-68750000D01*
X94850000Y-68750000D01*
X94850000Y-67250000D01*
G37*
%TD*%
D10*
%TO.C,TP2*%
X33000000Y-54000000D03*
%TD*%
%TO.C,TP5*%
X72000000Y-66000000D03*
%TD*%
D11*
%TO.C,H4*%
X116000000Y-59000000D03*
%TD*%
D12*
%TO.C,R3*%
X22175000Y-58000000D03*
X23825000Y-58000000D03*
%TD*%
D13*
%TO.C,R9*%
X45000000Y-62325000D03*
X45000000Y-60675000D03*
%TD*%
D14*
%TO.C,D20*%
X85550000Y-28437500D03*
X87450000Y-28437500D03*
X86500000Y-26562500D03*
%TD*%
D12*
%TO.C,R44*%
X81175000Y-36000000D03*
X82825000Y-36000000D03*
%TD*%
D10*
%TO.C,TP7*%
X40500000Y-60500000D03*
%TD*%
D15*
%TO.C,L2*%
X65500000Y-56315000D03*
X65500000Y-58685000D03*
%TD*%
D16*
%TO.C,C44*%
X63225000Y-41000000D03*
X64775000Y-41000000D03*
%TD*%
D17*
%TO.C,J60*%
X114500000Y-75500000D03*
X114500000Y-80500000D03*
X114500000Y-85500000D03*
D18*
X110000000Y-80500000D03*
%TD*%
D12*
%TO.C,R24*%
X43175000Y-82000000D03*
X44825000Y-82000000D03*
%TD*%
%TO.C,R46*%
X92175000Y-39000000D03*
X93825000Y-39000000D03*
%TD*%
D19*
%TO.C,C10*%
X48275000Y-59500000D03*
X46725000Y-59500000D03*
%TD*%
D20*
%TO.C,C4*%
X25000000Y-51050000D03*
X25000000Y-52950000D03*
%TD*%
D21*
%TO.C,C62*%
X93050000Y-77000000D03*
X94950000Y-77000000D03*
%TD*%
D12*
%TO.C,R21*%
X56175000Y-70000000D03*
X57825000Y-70000000D03*
%TD*%
%TO.C,R40*%
X67175000Y-52000000D03*
X68825000Y-52000000D03*
%TD*%
D21*
%TO.C,C15*%
X63050000Y-64000000D03*
X64950000Y-64000000D03*
%TD*%
D22*
%TO.C,U3*%
X27862500Y-55550000D03*
X27862500Y-56500000D03*
X27862500Y-57450000D03*
X30137500Y-57450000D03*
X30137500Y-56500000D03*
X30137500Y-55550000D03*
%TD*%
D12*
%TO.C,R25*%
X47175000Y-79500000D03*
X48825000Y-79500000D03*
%TD*%
D16*
%TO.C,C22*%
X31725000Y-29800000D03*
X33275000Y-29800000D03*
%TD*%
D23*
%TO.C,U20*%
X74025000Y-26095000D03*
X74025000Y-27365000D03*
X74025000Y-28635000D03*
X74025000Y-29905000D03*
X78975000Y-29905000D03*
X78975000Y-28635000D03*
X78975000Y-27365000D03*
X78975000Y-26095000D03*
%TD*%
D12*
%TO.C,R50*%
X59175000Y-45000000D03*
X60825000Y-45000000D03*
%TD*%
D10*
%TO.C,TP10*%
X55000000Y-80000000D03*
%TD*%
D21*
%TO.C,C14*%
X59050000Y-64000000D03*
X60950000Y-64000000D03*
%TD*%
D12*
%TO.C,R27*%
X59675000Y-49500000D03*
X61325000Y-49500000D03*
%TD*%
D23*
%TO.C,U60*%
X88525000Y-70095000D03*
X88525000Y-71365000D03*
X88525000Y-72635000D03*
X88525000Y-73905000D03*
X93475000Y-73905000D03*
X93475000Y-72635000D03*
X93475000Y-71365000D03*
X93475000Y-70095000D03*
%TD*%
D24*
%TO.C,J20*%
X95500000Y-27500000D03*
D25*
X100580000Y-27500000D03*
X105660000Y-27500000D03*
%TD*%
D21*
%TO.C,C13*%
X55550000Y-64000000D03*
X57450000Y-64000000D03*
%TD*%
D13*
%TO.C,R1*%
X27000000Y-82325000D03*
X27000000Y-80675000D03*
%TD*%
D10*
%TO.C,TP1*%
X22500000Y-48500000D03*
%TD*%
D12*
%TO.C,R43*%
X79175000Y-52000000D03*
X80825000Y-52000000D03*
%TD*%
D26*
%TO.C,C9*%
X48950000Y-55500000D03*
X47050000Y-55500000D03*
%TD*%
D24*
%TO.C,J40*%
X103000000Y-47000000D03*
D25*
X108080000Y-47000000D03*
X113160000Y-47000000D03*
%TD*%
D10*
%TO.C,TP21*%
X91000000Y-33000000D03*
%TD*%
D23*
%TO.C,U41*%
X84025000Y-39690000D03*
X84025000Y-40960000D03*
X84025000Y-42230000D03*
X84025000Y-43500000D03*
X84025000Y-44770000D03*
X84025000Y-46040000D03*
X84025000Y-47310000D03*
X88975000Y-47310000D03*
X88975000Y-46040000D03*
X88975000Y-44770000D03*
X88975000Y-43500000D03*
X88975000Y-42230000D03*
X88975000Y-40960000D03*
X88975000Y-39690000D03*
%TD*%
D27*
%TO.C,C16*%
X61000000Y-61775000D03*
X61000000Y-60225000D03*
%TD*%
D19*
%TO.C,C40*%
X80775000Y-34000000D03*
X79225000Y-34000000D03*
%TD*%
D12*
%TO.C,R47*%
X94175000Y-41500000D03*
X95825000Y-41500000D03*
%TD*%
%TO.C,R4*%
X24675000Y-61500000D03*
X26325000Y-61500000D03*
%TD*%
D16*
%TO.C,C3*%
X35225000Y-77000000D03*
X36775000Y-77000000D03*
%TD*%
D12*
%TO.C,R41*%
X83175000Y-59000000D03*
X84825000Y-59000000D03*
%TD*%
D28*
%TO.C,U5*%
X61500000Y-57000000D03*
X61500000Y-57500000D03*
X61500000Y-58000000D03*
D29*
X61525000Y-56350000D03*
D30*
X61525000Y-58650000D03*
D31*
X59850000Y-56750000D03*
X59850000Y-57250000D03*
X59850000Y-57750000D03*
D32*
X59810000Y-58250000D03*
D33*
X60275000Y-58690000D03*
D34*
X60775000Y-58650000D03*
X60775000Y-56350000D03*
X60275000Y-56350000D03*
%TD*%
D12*
%TO.C,R8*%
X28175000Y-61000000D03*
X29825000Y-61000000D03*
%TD*%
D16*
%TO.C,C45*%
X87225000Y-34000000D03*
X88775000Y-34000000D03*
%TD*%
D35*
%TO.C,D10*%
X27712500Y-43000000D03*
X29287500Y-43000000D03*
%TD*%
D10*
%TO.C,TP3*%
X52500000Y-64000000D03*
%TD*%
D16*
%TO.C,C19*%
X60225000Y-54000000D03*
X61775000Y-54000000D03*
%TD*%
D21*
%TO.C,C41*%
X73050000Y-36000000D03*
X74950000Y-36000000D03*
%TD*%
%TO.C,C31*%
X69550000Y-34000000D03*
X71450000Y-34000000D03*
%TD*%
D10*
%TO.C,TP12*%
X30000000Y-39000000D03*
%TD*%
D27*
%TO.C,C11*%
X37000000Y-52775000D03*
X37000000Y-51225000D03*
%TD*%
D36*
%TO.C,R49*%
X91000000Y-54175000D03*
X91000000Y-55825000D03*
%TD*%
D21*
%TO.C,C21*%
X31550000Y-27500000D03*
X33450000Y-27500000D03*
%TD*%
D37*
%TO.C,C5*%
X42525000Y-77000000D03*
X45475000Y-77000000D03*
%TD*%
D38*
%TO.C,Y40*%
X67000000Y-47150000D03*
X67000000Y-43850000D03*
X65000000Y-43850000D03*
X65000000Y-47150000D03*
%TD*%
D39*
%TO.C,J1*%
X25105000Y-66110000D03*
X25105000Y-71890000D03*
D40*
X26180000Y-65800000D03*
X26180000Y-66600000D03*
D41*
X26180000Y-67750000D03*
X26180000Y-68750000D03*
X26180000Y-69250000D03*
X26180000Y-70250000D03*
D40*
X26180000Y-71400000D03*
X26180000Y-72200000D03*
X26180000Y-72200000D03*
X26180000Y-71400000D03*
D41*
X26180000Y-70750000D03*
X26180000Y-69750000D03*
X26180000Y-68250000D03*
X26180000Y-67250000D03*
D40*
X26180000Y-66600000D03*
X26180000Y-65800000D03*
D42*
X25605000Y-64680000D03*
D43*
X21425000Y-64680000D03*
D42*
X25605000Y-73320000D03*
D43*
X21425000Y-73320000D03*
%TD*%
D22*
%TO.C,U1*%
X29862500Y-68050000D03*
X29862500Y-69000000D03*
X29862500Y-69950000D03*
X32137500Y-69950000D03*
X32137500Y-69000000D03*
X32137500Y-68050000D03*
%TD*%
D44*
%TO.C,JP41*%
X99350000Y-56000000D03*
D45*
X100650000Y-56000000D03*
%TD*%
D46*
%TO.C,Q1*%
X45062500Y-66050000D03*
X45062500Y-67950000D03*
X46937500Y-67000000D03*
%TD*%
D12*
%TO.C,R13*%
X55675000Y-61500000D03*
X57325000Y-61500000D03*
%TD*%
D47*
%TO.C,SW3*%
X72950000Y-82750000D03*
X82050000Y-82750000D03*
X72950000Y-87250000D03*
X82050000Y-87250000D03*
%TD*%
D12*
%TO.C,R22*%
X51175000Y-71000000D03*
X52825000Y-71000000D03*
%TD*%
D48*
%TO.C,C63*%
X87750000Y-84000000D03*
X94250000Y-84000000D03*
%TD*%
D10*
%TO.C,TP15*%
X31000000Y-47000000D03*
%TD*%
D12*
%TO.C,R30*%
X81675000Y-25500000D03*
X83325000Y-25500000D03*
%TD*%
D10*
%TO.C,TP61*%
X99000000Y-64000000D03*
%TD*%
D12*
%TO.C,R61*%
X83175000Y-75000000D03*
X84825000Y-75000000D03*
%TD*%
D49*
%TO.C,L1*%
X41800000Y-57000000D03*
X44800000Y-57000000D03*
%TD*%
D10*
%TO.C,TP41*%
X110000000Y-58000000D03*
%TD*%
D46*
%TO.C,Q2*%
X45062500Y-71050000D03*
X45062500Y-72950000D03*
X46937500Y-72000000D03*
%TD*%
D21*
%TO.C,C60*%
X83050000Y-69000000D03*
X84950000Y-69000000D03*
%TD*%
D12*
%TO.C,R31*%
X81675000Y-29500000D03*
X83325000Y-29500000D03*
%TD*%
D50*
%TO.C,C1*%
X27500000Y-78975000D03*
X27500000Y-76025000D03*
%TD*%
D51*
%TO.C,U10*%
X36250000Y-27539999D03*
X36250000Y-28809999D03*
X36250000Y-30079999D03*
X36250000Y-31349999D03*
X36250000Y-32619999D03*
X36250000Y-33889999D03*
X36250000Y-35159999D03*
X36250000Y-36429999D03*
X36250000Y-37699999D03*
X36250000Y-38969999D03*
X36250000Y-40239999D03*
X36250000Y-41509999D03*
X36250000Y-42779999D03*
X36250000Y-44049999D03*
D52*
X39285000Y-45299999D03*
X40555000Y-45299999D03*
X41825000Y-45299999D03*
X43095000Y-45299999D03*
X44365000Y-45299999D03*
X45635000Y-45299999D03*
X46905000Y-45299999D03*
X48175000Y-45299999D03*
X49445000Y-45299999D03*
X50715000Y-45299999D03*
D51*
X53750000Y-44049999D03*
X53750000Y-42779999D03*
X53750000Y-41509999D03*
X53750000Y-40239999D03*
X53750000Y-38969999D03*
X53750000Y-37699999D03*
X53750000Y-36429999D03*
X53750000Y-35159999D03*
X53750000Y-33889999D03*
X53750000Y-32619999D03*
X53750000Y-31349999D03*
X53750000Y-30079999D03*
X53750000Y-28809999D03*
X53750000Y-27539999D03*
D53*
X42100000Y-33859999D03*
D54*
X42100000Y-34559999D03*
D53*
X42100000Y-35259999D03*
D54*
X42100000Y-35959999D03*
D53*
X42100000Y-36659999D03*
D54*
X42800000Y-33859999D03*
X42800000Y-35259999D03*
X42800000Y-36659999D03*
D53*
X43500000Y-33859999D03*
D54*
X43500000Y-34559999D03*
D53*
X43500000Y-35259999D03*
D54*
X43500000Y-35959999D03*
D53*
X43500000Y-36659999D03*
D54*
X44200000Y-33859999D03*
X44200000Y-35259999D03*
X44200000Y-36659999D03*
D53*
X44900000Y-33859999D03*
D54*
X44900000Y-34559999D03*
D53*
X44900000Y-35259999D03*
D54*
X44900000Y-35959999D03*
D53*
X44900000Y-36659999D03*
%TD*%
D21*
%TO.C,C18*%
X61550000Y-51500000D03*
X63450000Y-51500000D03*
%TD*%
D16*
%TO.C,C42*%
X77225000Y-36000000D03*
X78775000Y-36000000D03*
%TD*%
D12*
%TO.C,R23*%
X41175000Y-74500000D03*
X42825000Y-74500000D03*
%TD*%
D37*
%TO.C,C23*%
X46525000Y-48500000D03*
X49475000Y-48500000D03*
%TD*%
D12*
%TO.C,R42*%
X75175000Y-52000000D03*
X76825000Y-52000000D03*
%TD*%
D55*
%TO.C,U40*%
X70350000Y-38420000D03*
X70350000Y-39690000D03*
X70350000Y-40960000D03*
X70350000Y-42230000D03*
X70350000Y-43500000D03*
X70350000Y-44770000D03*
X70350000Y-46040000D03*
X70350000Y-47310000D03*
X70350000Y-48580000D03*
X79650000Y-48580000D03*
X79650000Y-47310000D03*
X79650000Y-46040000D03*
X79650000Y-44770000D03*
X79650000Y-43500000D03*
X79650000Y-42230000D03*
X79650000Y-40960000D03*
X79650000Y-39690000D03*
X79650000Y-38420000D03*
%TD*%
D44*
%TO.C,JP20*%
X104350000Y-37000000D03*
D45*
X105650000Y-37000000D03*
%TD*%
D12*
%TO.C,R62*%
X98175000Y-72000000D03*
X99825000Y-72000000D03*
%TD*%
D44*
%TO.C,JP62*%
X81350000Y-78000000D03*
D45*
X82650000Y-78000000D03*
%TD*%
D10*
%TO.C,TP8*%
X48000000Y-64000000D03*
%TD*%
D13*
%TO.C,R6*%
X33500000Y-52325000D03*
X33500000Y-50675000D03*
%TD*%
D21*
%TO.C,C46*%
X85050000Y-51000000D03*
X86950000Y-51000000D03*
%TD*%
D44*
%TO.C,JP61*%
X98350000Y-68000000D03*
D45*
X99650000Y-68000000D03*
%TD*%
D56*
%TO.C,D60*%
X104000000Y-71050000D03*
X104000000Y-68950000D03*
%TD*%
D57*
%TO.C,U4*%
X39962500Y-57750000D03*
X39962500Y-57250000D03*
X39962500Y-56750000D03*
X39962500Y-56250000D03*
D58*
X39250000Y-55537500D03*
X38750000Y-55537500D03*
X38250000Y-55537500D03*
X37750000Y-55537500D03*
D57*
X37037500Y-56250000D03*
X37037500Y-56750000D03*
X37037500Y-57250000D03*
X37037500Y-57750000D03*
D58*
X37750000Y-58462500D03*
X38250000Y-58462500D03*
X38750000Y-58462500D03*
X39250000Y-58462500D03*
D59*
X38500000Y-57000000D03*
%TD*%
D12*
%TO.C,R63*%
X78175000Y-75000000D03*
X79825000Y-75000000D03*
%TD*%
D21*
%TO.C,C20*%
X31550000Y-32000000D03*
X33450000Y-32000000D03*
%TD*%
D60*
%TO.C,R14*%
X56825000Y-57250000D03*
X55175000Y-57250000D03*
%TD*%
D10*
%TO.C,TP4*%
X71000000Y-57500000D03*
%TD*%
D16*
%TO.C,C8*%
X32725000Y-59500000D03*
X34275000Y-59500000D03*
%TD*%
D60*
%TO.C,R26*%
X32825000Y-43000000D03*
X31175000Y-43000000D03*
%TD*%
D13*
%TO.C,R5*%
X30500000Y-52325000D03*
X30500000Y-50675000D03*
%TD*%
D11*
%TO.C,H3*%
X24000000Y-86000000D03*
%TD*%
D16*
%TO.C,C12*%
X56725000Y-55000000D03*
X58275000Y-55000000D03*
%TD*%
D61*
%TO.C,J10*%
X34000000Y-86000000D03*
D62*
X36000000Y-86000000D03*
X38000000Y-86000000D03*
X40000000Y-86000000D03*
%TD*%
D12*
%TO.C,R10*%
X41675000Y-51500000D03*
X43325000Y-51500000D03*
%TD*%
D21*
%TO.C,C7*%
X32550000Y-56500000D03*
X34450000Y-56500000D03*
%TD*%
D12*
%TO.C,R60*%
X79175000Y-70500000D03*
X80825000Y-70500000D03*
%TD*%
%TO.C,R20*%
X56175000Y-67000000D03*
X57825000Y-67000000D03*
%TD*%
D10*
%TO.C,TP6*%
X50500000Y-57500000D03*
%TD*%
D60*
%TO.C,R12*%
X57325000Y-59500000D03*
X55675000Y-59500000D03*
%TD*%
D10*
%TO.C,TP20*%
X78000000Y-21500000D03*
%TD*%
D16*
%TO.C,C61*%
X87225000Y-77000000D03*
X88775000Y-77000000D03*
%TD*%
D12*
%TO.C,R32*%
X98175000Y-37000000D03*
X99825000Y-37000000D03*
%TD*%
D10*
%TO.C,TP60*%
X77000000Y-67000000D03*
%TD*%
D27*
%TO.C,C6*%
X36000000Y-63775000D03*
X36000000Y-62225000D03*
%TD*%
D10*
%TO.C,TP62*%
X104000000Y-64000000D03*
%TD*%
D14*
%TO.C,D40*%
X95050000Y-47937500D03*
X96950000Y-47937500D03*
X96000000Y-46062500D03*
%TD*%
D10*
%TO.C,TP13*%
X67000000Y-80000000D03*
%TD*%
D12*
%TO.C,R45*%
X84175000Y-36000000D03*
X85825000Y-36000000D03*
%TD*%
D21*
%TO.C,C2*%
X31550000Y-77000000D03*
X33450000Y-77000000D03*
%TD*%
D47*
%TO.C,SW1*%
X48950000Y-82750000D03*
X58050000Y-82750000D03*
X48950000Y-87250000D03*
X58050000Y-87250000D03*
%TD*%
%TO.C,SW2*%
X60950000Y-82750000D03*
X70050000Y-82750000D03*
X60950000Y-87250000D03*
X70050000Y-87250000D03*
%TD*%
D36*
%TO.C,R48*%
X88000000Y-54175000D03*
X88000000Y-55825000D03*
%TD*%
D60*
%TO.C,R7*%
X37825000Y-74000000D03*
X36175000Y-74000000D03*
%TD*%
D10*
%TO.C,TP40*%
X106000000Y-58000000D03*
%TD*%
D63*
%TO.C,U2*%
X36550000Y-67500000D03*
X36550000Y-68000000D03*
X36550000Y-68500000D03*
X36550000Y-69000000D03*
X36550000Y-69500000D03*
X36550000Y-70000000D03*
X36550000Y-70500000D03*
D64*
X37500000Y-71450000D03*
X38000000Y-71450000D03*
X38500000Y-71450000D03*
X39000000Y-71450000D03*
X39500000Y-71450000D03*
X40000000Y-71450000D03*
X40500000Y-71450000D03*
D63*
X41450000Y-70500000D03*
X41450000Y-70000000D03*
X41450000Y-69500000D03*
X41450000Y-69000000D03*
X41450000Y-68500000D03*
X41450000Y-68000000D03*
X41450000Y-67500000D03*
D64*
X40500000Y-66550000D03*
X40000000Y-66550000D03*
X39500000Y-66550000D03*
X39000000Y-66550000D03*
X38500000Y-66550000D03*
X38000000Y-66550000D03*
X37500000Y-66550000D03*
D65*
X39000000Y-69000000D03*
%TD*%
D44*
%TO.C,JP40*%
X94350000Y-56000000D03*
D45*
X95650000Y-56000000D03*
%TD*%
D16*
%TO.C,C30*%
X70025000Y-28600000D03*
X71575000Y-28600000D03*
%TD*%
D21*
%TO.C,C17*%
X56550000Y-51500000D03*
X58450000Y-51500000D03*
%TD*%
D13*
%TO.C,R2*%
X29000000Y-84825000D03*
X29000000Y-83175000D03*
%TD*%
D16*
%TO.C,C43*%
X65725000Y-49500000D03*
X67275000Y-49500000D03*
%TD*%
D44*
%TO.C,JP60*%
X94350000Y-68000000D03*
D45*
X95650000Y-68000000D03*
%TD*%
D60*
%TO.C,R11*%
X55325000Y-53500000D03*
X53675000Y-53500000D03*
%TD*%
D10*
%TO.C,TP14*%
X30000000Y-35000000D03*
%TD*%
%TO.C,TP11*%
X59000000Y-80000000D03*
%TD*%
D11*
%TO.C,H2*%
X116000000Y-24000000D03*
%TD*%
%TO.C,H1*%
X24000000Y-32000000D03*
%TD*%
D66*
X116000000Y-59000000D03*
X114500000Y-75500000D03*
X114500000Y-80500000D03*
X114500000Y-85500000D03*
X110000000Y-80500000D03*
X95500000Y-27500000D03*
X100580000Y-27500000D03*
X105660000Y-27500000D03*
X103000000Y-47000000D03*
X108080000Y-47000000D03*
X113160000Y-47000000D03*
X25105000Y-66110000D03*
X25105000Y-71890000D03*
D67*
X25605000Y-64680000D03*
D68*
X21425000Y-64680000D03*
D67*
X25605000Y-73320000D03*
D68*
X21425000Y-73320000D03*
D69*
X42100000Y-34559999D03*
X42100000Y-35959999D03*
X42800000Y-33859999D03*
X42800000Y-35259999D03*
X42800000Y-36659999D03*
X43500000Y-34559999D03*
X43500000Y-35959999D03*
X44200000Y-33859999D03*
X44200000Y-35259999D03*
X44200000Y-36659999D03*
X44900000Y-34559999D03*
X44900000Y-35959999D03*
D66*
X24000000Y-86000000D03*
X34000000Y-86000000D03*
X36000000Y-86000000D03*
X38000000Y-86000000D03*
X40000000Y-86000000D03*
X116000000Y-24000000D03*
X24000000Y-32000000D03*
M02*
