%TF.GenerationSoftware,KiCad,Pcbnew,10.0.6*%
%TF.CreationDate,2026-10-05T10:35:56+00:00*%
%TF.ProjectId,dual_can_esp32,6475616c-5f63-4616-9e5f-65737033322e,A*%
%TF.SameCoordinates,Original*%
%TF.FileFunction,Copper,L1,Top*%
%TF.FilePolarity,Positive*%
%FSLAX46Y46*%
G04 Gerber Fmt 4.6, Leading zero omitted, Abs format (unit mm)*
G04 Created by KiCad (PCBNEW 10.0.6) date 2026-10-05 10:35:56*
%MOMM*%
%LPD*%
G01*
G04 APERTURE LIST*
G04 Aperture macros list*
%AMRoundRect*
0 Rectangle with rounded corners*
0 $1 Rounding radius*
0 $2 $3 $4 $5 $6 $7 $8 $9 X,Y pos of 4 corners*
0 Add a 4 corners polygon primitive as box body*
4,1,4,$2,$3,$4,$5,$6,$7,$8,$9,$2,$3,0*
0 Add four circle primitives for the rounded corners*
1,1,$1+$1,$2,$3*
1,1,$1+$1,$4,$5*
1,1,$1+$1,$6,$7*
1,1,$1+$1,$8,$9*
0 Add four rect primitives between the rounded corners*
20,1,$1+$1,$2,$3,$4,$5,0*
20,1,$1+$1,$4,$5,$6,$7,0*
20,1,$1+$1,$6,$7,$8,$9,0*
20,1,$1+$1,$8,$9,$2,$3,0*%
%AMFreePoly0*
4,1,7,0.275000,-0.050000,0.150000,-0.050000,0.150000,-0.300000,-0.250000,-0.300000,-0.250000,0.300000,0.275000,0.300000,0.275000,-0.050000,0.275000,-0.050000,$1*%
%AMFreePoly1*
4,1,7,0.300000,-0.300000,-0.100000,-0.300000,-0.100000,-0.050000,-0.225000,-0.050000,-0.225000,0.300000,0.300000,0.300000,0.300000,-0.300000,0.300000,-0.300000,$1*%
%AMFreePoly2*
4,1,7,0.300000,-0.300000,-0.225000,-0.300000,-0.225000,0.050000,-0.100000,0.050000,-0.100000,0.300000,0.300000,0.300000,0.300000,-0.300000,0.300000,-0.300000,$1*%
%AMFreePoly3*
4,1,7,0.150000,0.050000,0.275000,0.050000,0.275000,-0.300000,-0.250000,-0.300000,-0.250000,0.300000,0.150000,0.300000,0.150000,0.050000,0.150000,0.050000,$1*%
%AMFreePoly4*
4,1,23,0.500000,-0.750000,0.000000,-0.750000,0.000000,-0.745722,-0.065263,-0.745722,-0.191342,-0.711940,-0.304381,-0.646677,-0.396677,-0.554381,-0.461940,-0.441342,-0.495722,-0.315263,-0.495722,-0.250000,-0.500000,-0.250000,-0.500000,0.250000,-0.495722,0.250000,-0.495722,0.315263,-0.461940,0.441342,-0.396677,0.554381,-0.304381,0.646677,-0.191342,0.711940,-0.065263,0.745722,0.000000,0.745722,
0.000000,0.750000,0.500000,0.750000,0.500000,-0.750000,0.500000,-0.750000,$1*%
%AMFreePoly5*
4,1,23,0.000000,0.745722,0.065263,0.745722,0.191342,0.711940,0.304381,0.646677,0.396677,0.554381,0.461940,0.441342,0.495722,0.315263,0.495722,0.250000,0.500000,0.250000,0.500000,-0.250000,0.495722,-0.250000,0.495722,-0.315263,0.461940,-0.441342,0.396677,-0.554381,0.304381,-0.646677,0.191342,-0.711940,0.065263,-0.745722,0.000000,-0.745722,0.000000,-0.750000,-0.500000,-0.750000,
-0.500000,0.750000,0.000000,0.750000,0.000000,0.745722,0.000000,0.745722,$1*%
G04 Aperture macros list end*
%TA.AperFunction,EtchedComponent*%
%ADD10C,0.000000*%
%TD*%
%TA.AperFunction,SMDPad,CuDef*%
%ADD11C,1.000000*%
%TD*%
%TA.AperFunction,SMDPad,CuDef*%
%ADD12RoundRect,0.200000X-0.200000X-0.275000X0.200000X-0.275000X0.200000X0.275000X-0.200000X0.275000X0*%
%TD*%
%TA.AperFunction,SMDPad,CuDef*%
%ADD13RoundRect,0.200000X0.275000X-0.200000X0.275000X0.200000X-0.275000X0.200000X-0.275000X-0.200000X0*%
%TD*%
%TA.AperFunction,SMDPad,CuDef*%
%ADD14RoundRect,0.150000X0.150000X-0.587500X0.150000X0.587500X-0.150000X0.587500X-0.150000X-0.587500X0*%
%TD*%
%TA.AperFunction,SMDPad,CuDef*%
%ADD15R,3.400000X0.980000*%
%TD*%
%TA.AperFunction,SMDPad,CuDef*%
%ADD16RoundRect,0.225000X-0.225000X-0.250000X0.225000X-0.250000X0.225000X0.250000X-0.225000X0.250000X0*%
%TD*%
%TA.AperFunction,ComponentPad*%
%ADD17C,3.600000*%
%TD*%
%TA.AperFunction,ComponentPad*%
%ADD18C,2.700000*%
%TD*%
%TA.AperFunction,SMDPad,CuDef*%
%ADD19RoundRect,0.225000X0.225000X0.250000X-0.225000X0.250000X-0.225000X-0.250000X0.225000X-0.250000X0*%
%TD*%
%TA.AperFunction,SMDPad,CuDef*%
%ADD20RoundRect,0.250000X-0.475000X0.250000X-0.475000X-0.250000X0.475000X-0.250000X0.475000X0.250000X0*%
%TD*%
%TA.AperFunction,SMDPad,CuDef*%
%ADD21RoundRect,0.250000X-0.250000X-0.475000X0.250000X-0.475000X0.250000X0.475000X-0.250000X0.475000X0*%
%TD*%
%TA.AperFunction,SMDPad,CuDef*%
%ADD22RoundRect,0.150000X-0.512500X-0.150000X0.512500X-0.150000X0.512500X0.150000X-0.512500X0.150000X0*%
%TD*%
%TA.AperFunction,SMDPad,CuDef*%
%ADD23RoundRect,0.150000X-0.825000X-0.150000X0.825000X-0.150000X0.825000X0.150000X-0.825000X0.150000X0*%
%TD*%
%TA.AperFunction,ComponentPad*%
%ADD24RoundRect,0.250000X-1.050000X-1.050000X1.050000X-1.050000X1.050000X1.050000X-1.050000X1.050000X0*%
%TD*%
%TA.AperFunction,ComponentPad*%
%ADD25C,2.600000*%
%TD*%
%TA.AperFunction,SMDPad,CuDef*%
%ADD26RoundRect,0.250000X0.250000X0.475000X-0.250000X0.475000X-0.250000X-0.475000X0.250000X-0.475000X0*%
%TD*%
%TA.AperFunction,SMDPad,CuDef*%
%ADD27RoundRect,0.225000X0.250000X-0.225000X0.250000X0.225000X-0.250000X0.225000X-0.250000X-0.225000X0*%
%TD*%
%TA.AperFunction,SMDPad,CuDef*%
%ADD28RoundRect,0.050000X-0.250000X-0.075000X0.250000X-0.075000X0.250000X0.075000X-0.250000X0.075000X0*%
%TD*%
%TA.AperFunction,SMDPad,CuDef*%
%ADD29RoundRect,0.050000X-0.210000X-0.075000X0.210000X-0.075000X0.210000X0.075000X-0.210000X0.075000X0*%
%TD*%
%TA.AperFunction,SMDPad,CuDef*%
%ADD30RoundRect,0.050000X-0.075000X-0.210000X0.075000X-0.210000X0.075000X0.210000X-0.075000X0.210000X0*%
%TD*%
%TA.AperFunction,SMDPad,CuDef*%
%ADD31RoundRect,0.050000X-0.075000X-0.250000X0.075000X-0.250000X0.075000X0.250000X-0.075000X0.250000X0*%
%TD*%
%TA.AperFunction,SMDPad,CuDef*%
%ADD32FreePoly0,0.000000*%
%TD*%
%TA.AperFunction,SMDPad,CuDef*%
%ADD33FreePoly1,0.000000*%
%TD*%
%TA.AperFunction,SMDPad,CuDef*%
%ADD34RoundRect,0.050000X-0.800000X-0.075000X0.800000X-0.075000X0.800000X0.075000X-0.800000X0.075000X0*%
%TD*%
%TA.AperFunction,SMDPad,CuDef*%
%ADD35FreePoly2,0.000000*%
%TD*%
%TA.AperFunction,SMDPad,CuDef*%
%ADD36FreePoly3,0.000000*%
%TD*%
%TA.AperFunction,SMDPad,CuDef*%
%ADD37RoundRect,0.218750X-0.218750X-0.256250X0.218750X-0.256250X0.218750X0.256250X-0.218750X0.256250X0*%
%TD*%
%TA.AperFunction,SMDPad,CuDef*%
%ADD38RoundRect,0.200000X-0.275000X0.200000X-0.275000X-0.200000X0.275000X-0.200000X0.275000X0.200000X0*%
%TD*%
%TA.AperFunction,SMDPad,CuDef*%
%ADD39RoundRect,0.250000X-0.325000X-1.100000X0.325000X-1.100000X0.325000X1.100000X-0.325000X1.100000X0*%
%TD*%
%TA.AperFunction,SMDPad,CuDef*%
%ADD40RoundRect,0.250000X0.400000X-0.550000X0.400000X0.550000X-0.400000X0.550000X-0.400000X-0.550000X0*%
%TD*%
%TA.AperFunction,SMDPad,CuDef*%
%ADD41RoundRect,0.150000X-0.425000X0.150000X-0.425000X-0.150000X0.425000X-0.150000X0.425000X0.150000X0*%
%TD*%
%TA.AperFunction,SMDPad,CuDef*%
%ADD42RoundRect,0.075000X-0.500000X0.075000X-0.500000X-0.075000X0.500000X-0.075000X0.500000X0.075000X0*%
%TD*%
%TA.AperFunction,ComponentPad*%
%ADD43O,2.100000X1.000000*%
%TD*%
%TA.AperFunction,ComponentPad*%
%ADD44O,1.800000X1.000000*%
%TD*%
%TA.AperFunction,SMDPad,CuDef*%
%ADD45FreePoly4,0.000000*%
%TD*%
%TA.AperFunction,SMDPad,CuDef*%
%ADD46FreePoly5,0.000000*%
%TD*%
%TA.AperFunction,SMDPad,CuDef*%
%ADD47RoundRect,0.150000X-0.587500X-0.150000X0.587500X-0.150000X0.587500X0.150000X-0.587500X0.150000X0*%
%TD*%
%TA.AperFunction,SMDPad,CuDef*%
%ADD48RoundRect,0.250000X-0.800000X-0.450000X0.800000X-0.450000X0.800000X0.450000X-0.800000X0.450000X0*%
%TD*%
%TA.AperFunction,SMDPad,CuDef*%
%ADD49RoundRect,0.250000X-1.500000X-1.000000X1.500000X-1.000000X1.500000X1.000000X-1.500000X1.000000X0*%
%TD*%
%TA.AperFunction,SMDPad,CuDef*%
%ADD50R,1.100000X3.700000*%
%TD*%
%TA.AperFunction,SMDPad,CuDef*%
%ADD51RoundRect,0.250000X1.100000X-0.325000X1.100000X0.325000X-1.100000X0.325000X-1.100000X-0.325000X0*%
%TD*%
%TA.AperFunction,SMDPad,CuDef*%
%ADD52R,1.500000X0.900000*%
%TD*%
%TA.AperFunction,SMDPad,CuDef*%
%ADD53R,0.900000X1.500000*%
%TD*%
%TA.AperFunction,HeatsinkPad*%
%ADD54R,0.900000X0.900000*%
%TD*%
%TA.AperFunction,HeatsinkPad*%
%ADD55C,0.600000*%
%TD*%
%TA.AperFunction,SMDPad,CuDef*%
%ADD56RoundRect,0.150000X-0.875000X-0.150000X0.875000X-0.150000X0.875000X0.150000X-0.875000X0.150000X0*%
%TD*%
%TA.AperFunction,SMDPad,CuDef*%
%ADD57RoundRect,0.112500X0.112500X-0.187500X0.112500X0.187500X-0.112500X0.187500X-0.112500X-0.187500X0*%
%TD*%
%TA.AperFunction,SMDPad,CuDef*%
%ADD58RoundRect,0.062500X0.350000X0.062500X-0.350000X0.062500X-0.350000X-0.062500X0.350000X-0.062500X0*%
%TD*%
%TA.AperFunction,SMDPad,CuDef*%
%ADD59RoundRect,0.062500X0.062500X0.350000X-0.062500X0.350000X-0.062500X-0.350000X0.062500X-0.350000X0*%
%TD*%
%TA.AperFunction,HeatsinkPad*%
%ADD60C,0.500000*%
%TD*%
%TA.AperFunction,HeatsinkPad*%
%ADD61R,1.680000X1.680000*%
%TD*%
%TA.AperFunction,SMDPad,CuDef*%
%ADD62RoundRect,0.200000X0.200000X0.275000X-0.200000X0.275000X-0.200000X-0.275000X0.200000X-0.275000X0*%
%TD*%
%TA.AperFunction,ComponentPad*%
%ADD63RoundRect,0.250000X-0.350000X-0.625000X0.350000X-0.625000X0.350000X0.625000X-0.350000X0.625000X0*%
%TD*%
%TA.AperFunction,ComponentPad*%
%ADD64O,1.200000X1.750000*%
%TD*%
%TA.AperFunction,SMDPad,CuDef*%
%ADD65RoundRect,0.062500X-0.337500X-0.062500X0.337500X-0.062500X0.337500X0.062500X-0.337500X0.062500X0*%
%TD*%
%TA.AperFunction,SMDPad,CuDef*%
%ADD66RoundRect,0.062500X-0.062500X-0.337500X0.062500X-0.337500X0.062500X0.337500X-0.062500X0.337500X0*%
%TD*%
%TA.AperFunction,HeatsinkPad*%
%ADD67R,3.350000X3.350000*%
%TD*%
%TA.AperFunction,ViaPad*%
%ADD68C,0.600000*%
%TD*%
%TA.AperFunction,ViaPad*%
%ADD69C,0.450000*%
%TD*%
%TA.AperFunction,Conductor*%
%ADD70C,0.500000*%
%TD*%
%TA.AperFunction,Conductor*%
%ADD71C,0.200000*%
%TD*%
%TA.AperFunction,Conductor*%
%ADD72C,0.250000*%
%TD*%
%TA.AperFunction,Conductor*%
%ADD73C,0.400000*%
%TD*%
%TA.AperFunction,Conductor*%
%ADD74C,0.300000*%
%TD*%
%TA.AperFunction,Conductor*%
%ADD75C,0.150000*%
%TD*%
%TA.AperFunction,Conductor*%
%ADD76C,0.600000*%
%TD*%
%ADD77C,0.300000*%
%ADD78C,0.200000*%
%ADD79C,0.350000*%
%ADD80O,1.700000X0.600000*%
%ADD81O,1.400000X0.600000*%
G04 APERTURE END LIST*
D10*
%TA.AperFunction,EtchedComponent*%
%TO.C,JP60*%
G36*
X95250000Y-68300000D02*
G01*
X94750000Y-68300000D01*
X94750000Y-67700000D01*
X95250000Y-67700000D01*
X95250000Y-68300000D01*
G37*
%TD.AperFunction*%
%TD*%
D11*
%TO.P,TP2,1,1_1*%
%TO.N,/USB + Power/+5V_USB*%
X33000000Y-54000000D03*
%TD*%
%TO.P,TP5,1,1_1*%
%TO.N,/GND*%
X72000000Y-66000000D03*
%TD*%
D12*
%TO.P,R3,1*%
%TO.N,/GND*%
X22175000Y-58000000D03*
%TO.P,R3,2*%
%TO.N,/USB + Power/USB_SHIELD*%
X23825000Y-58000000D03*
%TD*%
D13*
%TO.P,R9,1*%
%TO.N,/USB + Power/USB_PWR_FAULT*%
X45000000Y-62325000D03*
%TO.P,R9,2*%
%TO.N,/+3V3*%
X45000000Y-60675000D03*
%TD*%
D14*
%TO.P,D20,1,K1/CAN1_1*%
%TO.N,/CAN_HS/CAN_HS_H*%
X85550000Y-28437500D03*
%TO.P,D20,2,K2/CAN2_2*%
%TO.N,/CAN_HS/CAN_HS_L*%
X87450000Y-28437500D03*
%TO.P,D20,3,CC_3*%
%TO.N,/GND*%
X86500000Y-26562500D03*
%TD*%
D12*
%TO.P,R44,1*%
%TO.N,/GND*%
X81175000Y-36000000D03*
%TO.P,R44,2*%
%TO.N,/CAN_FT_STB*%
X82825000Y-36000000D03*
%TD*%
D11*
%TO.P,TP7,1,1_1*%
%TO.N,/UART0_RX*%
X40500000Y-60500000D03*
%TD*%
D15*
%TO.P,L2,1,1_1*%
%TO.N,/USB + Power/L1_5VFT*%
X65500000Y-56315000D03*
%TO.P,L2,2,2_2*%
%TO.N,/USB + Power/L2_5VFT*%
X65500000Y-58685000D03*
%TD*%
D16*
%TO.P,C44,1*%
%TO.N,/GND*%
X63225000Y-41000000D03*
%TO.P,C44,2*%
%TO.N,/CAN_FT/MCP_OSC2*%
X64775000Y-41000000D03*
%TD*%
D17*
%TO.P,J60,1*%
%TO.N,/GND*%
X114500000Y-75500000D03*
X114500000Y-80500000D03*
X114500000Y-85500000D03*
D18*
%TO.P,J60,2*%
%TO.N,/Composite Video/VIDEO_RCA*%
X110000000Y-80500000D03*
%TD*%
D12*
%TO.P,R24,1*%
%TO.N,/ESP32 + UI/OLED_SCL*%
X43175000Y-82000000D03*
%TO.P,R24,2*%
%TO.N,/+3V3*%
X44825000Y-82000000D03*
%TD*%
%TO.P,R46,1*%
%TO.N,/CAN_FT/CAN_FT_H_PHY*%
X92175000Y-39000000D03*
%TO.P,R46,2*%
%TO.N,/CAN_FT/CAN_FT_H*%
X93825000Y-39000000D03*
%TD*%
D19*
%TO.P,C10,1*%
%TO.N,/GND*%
X48275000Y-59500000D03*
%TO.P,C10,2*%
%TO.N,/+3V3*%
X46725000Y-59500000D03*
%TD*%
D20*
%TO.P,C4,1*%
%TO.N,/GND*%
X25000000Y-51050000D03*
%TO.P,C4,2*%
%TO.N,/USB + Power/VBUS_RAW*%
X25000000Y-52950000D03*
%TD*%
D21*
%TO.P,C62,1*%
%TO.N,/GND*%
X93050000Y-77000000D03*
%TO.P,C62,2*%
%TO.N,/+3V3*%
X94950000Y-77000000D03*
%TD*%
D12*
%TO.P,R21,1*%
%TO.N,/ESP32 + UI/ESP_GPIO0*%
X56175000Y-70000000D03*
%TO.P,R21,2*%
%TO.N,/+3V3*%
X57825000Y-70000000D03*
%TD*%
%TO.P,R40,1*%
%TO.N,/CAN_FT/MCP_RESET_N*%
X67175000Y-52000000D03*
%TO.P,R40,2*%
%TO.N,/+3V3*%
X68825000Y-52000000D03*
%TD*%
D21*
%TO.P,C15,1*%
%TO.N,/GND*%
X63050000Y-64000000D03*
%TO.P,C15,2*%
%TO.N,/+5V_FT*%
X64950000Y-64000000D03*
%TD*%
D22*
%TO.P,U3,1,IN_1*%
%TO.N,/USB + Power/VBUS_RAW*%
X27862500Y-55550000D03*
%TO.P,U3,2,GND_2*%
%TO.N,/GND*%
X27862500Y-56500000D03*
%TO.P,U3,3,EN_3*%
%TO.N,/USB + Power/VBUS_RAW*%
X27862500Y-57450000D03*
%TO.P,U3,4,~{FAULT}_4*%
%TO.N,/USB + Power/USB_PWR_FAULT*%
X30137500Y-57450000D03*
%TO.P,U3,5,ILIM_5*%
%TO.N,/USB + Power/USB_ILIM*%
X30137500Y-56500000D03*
%TO.P,U3,6,OUT_6*%
%TO.N,/USB + Power/+5V_USB*%
X30137500Y-55550000D03*
%TD*%
D12*
%TO.P,R25,1*%
%TO.N,/ESP32 + UI/OLED_SDA*%
X47175000Y-79500000D03*
%TO.P,R25,2*%
%TO.N,/+3V3*%
X48825000Y-79500000D03*
%TD*%
D16*
%TO.P,C22,1*%
%TO.N,/GND*%
X31725000Y-29800000D03*
%TO.P,C22,2*%
%TO.N,/+3V3*%
X33275000Y-29800000D03*
%TD*%
D23*
%TO.P,U20,1,TXD_1*%
%TO.N,/CAN_HS_TX*%
X74025000Y-26095000D03*
%TO.P,U20,2,GND_2*%
%TO.N,/GND*%
X74025000Y-27365000D03*
%TO.P,U20,3,VCC_3*%
%TO.N,/+3V3*%
X74025000Y-28635000D03*
%TO.P,U20,4,RXD_4*%
%TO.N,/CAN_HS_RX*%
X74025000Y-29905000D03*
%TO.P,U20,5,NC_5*%
%TO.N,unconnected-(U20-NC-Pad5)*%
X78975000Y-29905000D03*
%TO.P,U20,6,CANL_6*%
%TO.N,/CAN_HS/CAN_HS_L_PHY*%
X78975000Y-28635000D03*
%TO.P,U20,7,CANH_7*%
%TO.N,/CAN_HS/CAN_HS_H_PHY*%
X78975000Y-27365000D03*
%TO.P,U20,8,NC_8*%
%TO.N,unconnected-(U20-NC-Pad8)*%
X78975000Y-26095000D03*
%TD*%
D12*
%TO.P,R50,1*%
%TO.N,/CAN_FT_CS*%
X59175000Y-45000000D03*
%TO.P,R50,2*%
%TO.N,/+3V3*%
X60825000Y-45000000D03*
%TD*%
D11*
%TO.P,TP10,1,1_1*%
%TO.N,/ESP32 + UI/ESP_EN*%
X55000000Y-80000000D03*
%TD*%
D21*
%TO.P,C14,1*%
%TO.N,/GND*%
X59050000Y-64000000D03*
%TO.P,C14,2*%
%TO.N,/+5V_FT*%
X60950000Y-64000000D03*
%TD*%
D12*
%TO.P,R27,1*%
%TO.N,/ESP32 + UI/USER_BUTTON*%
X59675000Y-49500000D03*
%TO.P,R27,2*%
%TO.N,/+3V3*%
X61325000Y-49500000D03*
%TD*%
D23*
%TO.P,U60,1,CH1_IN_1*%
%TO.N,/Composite Video/VIDEO_IN*%
X88525000Y-70095000D03*
%TO.P,U60,2,CH2_IN_2*%
%TO.N,/GND*%
X88525000Y-71365000D03*
%TO.P,U60,3,CH3_IN_3*%
X88525000Y-72635000D03*
%TO.P,U60,4,VS+_4*%
%TO.N,/+3V3*%
X88525000Y-73905000D03*
%TO.P,U60,5,GND_5*%
%TO.N,/GND*%
X93475000Y-73905000D03*
%TO.P,U60,6,CH3_OUT_6*%
%TO.N,unconnected-(U60-CH3_OUT-Pad6)*%
X93475000Y-72635000D03*
%TO.P,U60,7,CH2_OUT_7*%
%TO.N,unconnected-(U60-CH2_OUT-Pad7)*%
X93475000Y-71365000D03*
%TO.P,U60,8,CH1_OUT_8*%
%TO.N,/Composite Video/VIDEO_BUF_OUT*%
X93475000Y-70095000D03*
%TD*%
D24*
%TO.P,J20,1,Pin_1_1*%
%TO.N,/CAN_HS/CAN_HS_H*%
X95500000Y-27500000D03*
D25*
%TO.P,J20,2,Pin_2_2*%
%TO.N,/CAN_HS/CAN_HS_L*%
X100580000Y-27500000D03*
%TO.P,J20,3,Pin_3_3*%
%TO.N,/GND*%
X105660000Y-27500000D03*
%TD*%
D21*
%TO.P,C13,1*%
%TO.N,/GND*%
X55550000Y-64000000D03*
%TO.P,C13,2*%
%TO.N,/+5V_FT*%
X57450000Y-64000000D03*
%TD*%
D13*
%TO.P,R1,1*%
%TO.N,/GND*%
X27000000Y-82325000D03*
%TO.P,R1,2*%
%TO.N,/USB + Power/USB_CC1*%
X27000000Y-80675000D03*
%TD*%
D11*
%TO.P,TP1,1,1_1*%
%TO.N,/USB + Power/VBUS_RAW*%
X22500000Y-48500000D03*
%TD*%
D12*
%TO.P,R43,1*%
%TO.N,/CAN_FT_ERR*%
X79175000Y-52000000D03*
%TO.P,R43,2*%
%TO.N,/+3V3*%
X80825000Y-52000000D03*
%TD*%
D26*
%TO.P,C9,1*%
%TO.N,/GND*%
X48950000Y-55500000D03*
%TO.P,C9,2*%
%TO.N,/+3V3*%
X47050000Y-55500000D03*
%TD*%
D24*
%TO.P,J40,1,Pin_1_1*%
%TO.N,/CAN_FT/CAN_FT_H*%
X103000000Y-47000000D03*
D25*
%TO.P,J40,2,Pin_2_2*%
%TO.N,/CAN_FT/CAN_FT_L*%
X108080000Y-47000000D03*
%TO.P,J40,3,Pin_3_3*%
%TO.N,/GND*%
X113160000Y-47000000D03*
%TD*%
D11*
%TO.P,TP21,1,1_1*%
%TO.N,/CAN_HS/CAN_HS_L*%
X91000000Y-33000000D03*
%TD*%
D23*
%TO.P,U41,1,INH_1*%
%TO.N,unconnected-(U41-INH-Pad1)*%
X84025000Y-39690000D03*
%TO.P,U41,2,TXD_2*%
%TO.N,/CAN_FT/MCP_TXCAN*%
X84025000Y-40960000D03*
%TO.P,U41,3,RXD_3*%
%TO.N,/CAN_FT/MCP_RXCAN*%
X84025000Y-42230000D03*
%TO.P,U41,4,ERR_4*%
%TO.N,/CAN_FT_ERR*%
X84025000Y-43500000D03*
%TO.P,U41,5,STB_5*%
%TO.N,/CAN_FT_STB*%
X84025000Y-44770000D03*
%TO.P,U41,6,EN_6*%
%TO.N,/CAN_FT_EN*%
X84025000Y-46040000D03*
%TO.P,U41,7,~{WAKE}_7*%
%TO.N,/+5V_FT*%
X84025000Y-47310000D03*
%TO.P,U41,8,RTH_8*%
%TO.N,/CAN_FT/TJA_RTH*%
X88975000Y-47310000D03*
%TO.P,U41,9,RTL_9*%
%TO.N,/CAN_FT/TJA_RTL*%
X88975000Y-46040000D03*
%TO.P,U41,10,VCC_10*%
%TO.N,/+5V_FT*%
X88975000Y-44770000D03*
%TO.P,U41,11,CANH_11*%
%TO.N,/CAN_FT/CAN_FT_H_PHY*%
X88975000Y-43500000D03*
%TO.P,U41,12,CANL_12*%
%TO.N,/CAN_FT/CAN_FT_L_PHY*%
X88975000Y-42230000D03*
%TO.P,U41,13,GND_13*%
%TO.N,/GND*%
X88975000Y-40960000D03*
%TO.P,U41,14,BAT_14*%
%TO.N,/+5V_FT*%
X88975000Y-39690000D03*
%TD*%
D27*
%TO.P,C16,1*%
%TO.N,/GND*%
X61000000Y-61775000D03*
%TO.P,C16,2*%
%TO.N,/+5V_FT*%
X61000000Y-60225000D03*
%TD*%
D19*
%TO.P,C40,1*%
%TO.N,/GND*%
X80775000Y-34000000D03*
%TO.P,C40,2*%
%TO.N,/+3V3*%
X79225000Y-34000000D03*
%TD*%
D12*
%TO.P,R47,1*%
%TO.N,/CAN_FT/CAN_FT_L_PHY*%
X94175000Y-41500000D03*
%TO.P,R47,2*%
%TO.N,/CAN_FT/CAN_FT_L*%
X95825000Y-41500000D03*
%TD*%
%TO.P,R4,1*%
%TO.N,/GND*%
X24675000Y-61500000D03*
%TO.P,R4,2*%
%TO.N,/USB + Power/USB_SHIELD*%
X26325000Y-61500000D03*
%TD*%
D16*
%TO.P,C3,1*%
%TO.N,/GND*%
X35225000Y-77000000D03*
%TO.P,C3,2*%
%TO.N,/+3V3*%
X36775000Y-77000000D03*
%TD*%
D12*
%TO.P,R41,1*%
%TO.N,/CAN_FT_INT*%
X83175000Y-59000000D03*
%TO.P,R41,2*%
%TO.N,/+3V3*%
X84825000Y-59000000D03*
%TD*%
D28*
%TO.P,U5,1,PS/SYNC_1*%
%TO.N,/GND*%
X59850000Y-56750000D03*
%TO.P,U5,2,PG_2*%
%TO.N,/USB + Power/PG_5VFT*%
X59850000Y-57250000D03*
%TO.P,U5,3,VAUX_3*%
%TO.N,/USB + Power/VAUX_5VFT*%
X59850000Y-57750000D03*
D29*
%TO.P,U5,4,GND_4*%
%TO.N,/GND*%
X59810000Y-58250000D03*
D30*
%TO.P,U5,5,FB_5*%
%TO.N,/USB + Power/FB_5VFT*%
X60275000Y-58690000D03*
D31*
%TO.P,U5,6,FB2_6*%
%TO.N,unconnected-(U5-FB2-Pad6)*%
X60775000Y-58650000D03*
D32*
%TO.P,U5,7,VOUT_7*%
%TO.N,/+5V_FT*%
X61275000Y-58650000D03*
D33*
%TO.P,U5,8,VOUT_8*%
X61775000Y-58650000D03*
D34*
%TO.P,U5,9,L2_9*%
%TO.N,/USB + Power/L2_5VFT*%
X61500000Y-58000000D03*
%TO.P,U5,10,PGND_10*%
%TO.N,/GND*%
X61500000Y-57500000D03*
%TO.P,U5,11,L1_11*%
%TO.N,/USB + Power/L1_5VFT*%
X61500000Y-57000000D03*
D35*
%TO.P,U5,12,VIN_12*%
%TO.N,/USB + Power/+5V_USB*%
X61775000Y-56350000D03*
D36*
%TO.P,U5,13,VIN_13*%
X61275000Y-56350000D03*
D31*
%TO.P,U5,14,EN_14*%
%TO.N,/USB + Power/EN_5VFT*%
X60775000Y-56350000D03*
%TO.P,U5,15,VSEL_15*%
%TO.N,/GND*%
X60275000Y-56350000D03*
%TD*%
D12*
%TO.P,R8,1*%
%TO.N,/GND*%
X28175000Y-61000000D03*
%TO.P,R8,2*%
%TO.N,/USB + Power/USB_ILIM*%
X29825000Y-61000000D03*
%TD*%
D16*
%TO.P,C45,1*%
%TO.N,/GND*%
X87225000Y-34000000D03*
%TO.P,C45,2*%
%TO.N,/+5V_FT*%
X88775000Y-34000000D03*
%TD*%
D37*
%TO.P,D10,1,K_1*%
%TO.N,/GND*%
X27712500Y-43000000D03*
%TO.P,D10,2,A_2*%
%TO.N,/ESP32 + UI/STATUS_LED_A*%
X29287500Y-43000000D03*
%TD*%
D11*
%TO.P,TP3,1,1_1*%
%TO.N,/+3V3*%
X52500000Y-64000000D03*
%TD*%
D16*
%TO.P,C19,1*%
%TO.N,/GND*%
X60225000Y-54000000D03*
%TO.P,C19,2*%
%TO.N,/USB + Power/+5V_USB*%
X61775000Y-54000000D03*
%TD*%
D21*
%TO.P,C41,1*%
%TO.N,/GND*%
X73050000Y-36000000D03*
%TO.P,C41,2*%
%TO.N,/+3V3*%
X74950000Y-36000000D03*
%TD*%
%TO.P,C31,1*%
%TO.N,/GND*%
X69550000Y-34000000D03*
%TO.P,C31,2*%
%TO.N,/+3V3*%
X71450000Y-34000000D03*
%TD*%
D11*
%TO.P,TP12,1,1_1*%
%TO.N,/ESP32 + UI/DAC2_RESERVED*%
X30000000Y-39000000D03*
%TD*%
D27*
%TO.P,C11,1*%
%TO.N,/GND*%
X37000000Y-52775000D03*
%TO.P,C11,2*%
%TO.N,/USB + Power/SS_3V3*%
X37000000Y-51225000D03*
%TD*%
D38*
%TO.P,R49,1*%
%TO.N,/CAN_FT/TJA_RTL*%
X91000000Y-54175000D03*
%TO.P,R49,2*%
%TO.N,/CAN_FT/FT_TERM_L*%
X91000000Y-55825000D03*
%TD*%
D21*
%TO.P,C21,1*%
%TO.N,/GND*%
X31550000Y-27500000D03*
%TO.P,C21,2*%
%TO.N,/+3V3*%
X33450000Y-27500000D03*
%TD*%
D39*
%TO.P,C5,1*%
%TO.N,/GND*%
X42525000Y-77000000D03*
%TO.P,C5,2*%
%TO.N,/USB + Power/+5V_USB*%
X45475000Y-77000000D03*
%TD*%
D40*
%TO.P,Y40,1,XTAL1_1*%
%TO.N,/CAN_FT/MCP_OSC1*%
X67000000Y-47150000D03*
%TO.P,Y40,2,GND_2*%
%TO.N,/GND*%
X67000000Y-43850000D03*
%TO.P,Y40,3,XTAL2_3*%
%TO.N,/CAN_FT/MCP_OSC2*%
X65000000Y-43850000D03*
%TO.P,Y40,4,GND_4*%
%TO.N,/GND*%
X65000000Y-47150000D03*
%TD*%
D41*
%TO.P,J1,A1,GND_A1*%
%TO.N,/GND*%
X26180000Y-65800000D03*
%TO.P,J1,A4,VBUS_A4*%
%TO.N,/USB + Power/VBUS_RAW*%
X26180000Y-66600000D03*
D42*
%TO.P,J1,A5,CC1_A5*%
%TO.N,/USB + Power/USB_CC1*%
X26180000Y-67750000D03*
%TO.P,J1,A6,D+_A6*%
%TO.N,/USB + Power/USB_CONN_DP*%
X26180000Y-68750000D03*
%TO.P,J1,A7,D-_A7*%
%TO.N,/USB + Power/USB_CONN_DM*%
X26180000Y-69250000D03*
%TO.P,J1,A8,SBU1_A8*%
%TO.N,unconnected-(J1-SBU1-PadA8)*%
X26180000Y-70250000D03*
D41*
%TO.P,J1,A9,VBUS_A9*%
%TO.N,/USB + Power/VBUS_RAW*%
X26180000Y-71400000D03*
%TO.P,J1,A12,GND_A12*%
%TO.N,/GND*%
X26180000Y-72200000D03*
%TO.P,J1,B1,GND_B1*%
X26180000Y-72200000D03*
%TO.P,J1,B4,VBUS_B4*%
%TO.N,/USB + Power/VBUS_RAW*%
X26180000Y-71400000D03*
D42*
%TO.P,J1,B5,CC2_B5*%
%TO.N,/USB + Power/USB_CC2*%
X26180000Y-70750000D03*
%TO.P,J1,B6,D+_B6*%
%TO.N,/USB + Power/USB_CONN_DP*%
X26180000Y-69750000D03*
%TO.P,J1,B7,D-_B7*%
%TO.N,/USB + Power/USB_CONN_DM*%
X26180000Y-68250000D03*
%TO.P,J1,B8,SBU2_B8*%
%TO.N,unconnected-(J1-SBU2-PadB8)*%
X26180000Y-67250000D03*
D41*
%TO.P,J1,B9,VBUS_B9*%
%TO.N,/USB + Power/VBUS_RAW*%
X26180000Y-66600000D03*
%TO.P,J1,B12,GND_B12*%
%TO.N,/GND*%
X26180000Y-65800000D03*
D43*
%TO.P,J1,SH,SHIELD_SH*%
%TO.N,/USB + Power/USB_SHIELD*%
X25605000Y-64680000D03*
D44*
X21425000Y-64680000D03*
D43*
X25605000Y-73320000D03*
D44*
X21425000Y-73320000D03*
%TD*%
D22*
%TO.P,U1,1,I/O1_1*%
%TO.N,/USB + Power/USB_CONN_DP*%
X29862500Y-68050000D03*
%TO.P,U1,2,GND_2*%
%TO.N,/GND*%
X29862500Y-69000000D03*
%TO.P,U1,3,I/O2_3*%
%TO.N,/USB + Power/USB_CONN_DM*%
X29862500Y-69950000D03*
%TO.P,U1,4,I/O2_4*%
%TO.N,/USB + Power/USB_DM*%
X32137500Y-69950000D03*
%TO.P,U1,5,VBUS_5*%
%TO.N,/USB + Power/VBUS_RAW*%
X32137500Y-69000000D03*
%TO.P,U1,6,I/O1_6*%
%TO.N,/USB + Power/USB_DP*%
X32137500Y-68050000D03*
%TD*%
D45*
%TO.P,JP41,1,A_1*%
%TO.N,/CAN_FT/FT_TERM_L*%
X99350000Y-56000000D03*
D46*
%TO.P,JP41,2,B_2*%
%TO.N,/CAN_FT/CAN_FT_L*%
X100650000Y-56000000D03*
%TD*%
D47*
%TO.P,Q1,1,B_1*%
%TO.N,/ESP32 + UI/AUTO_Q1_BASE*%
X45062500Y-66050000D03*
%TO.P,Q1,2,E_2*%
%TO.N,/USB_RTS*%
X45062500Y-67950000D03*
%TO.P,Q1,3,C_3*%
%TO.N,/ESP32 + UI/ESP_EN*%
X46937500Y-67000000D03*
%TD*%
D12*
%TO.P,R13,1*%
%TO.N,/GND*%
X55675000Y-61500000D03*
%TO.P,R13,2*%
%TO.N,/USB + Power/FB_5VFT*%
X57325000Y-61500000D03*
%TD*%
D48*
%TO.P,SW3,1,1_1*%
%TO.N,/ESP32 + UI/USER_BUTTON*%
X72950000Y-82750000D03*
X82050000Y-82750000D03*
%TO.P,SW3,2,2_2*%
%TO.N,/GND*%
X72950000Y-87250000D03*
X82050000Y-87250000D03*
%TD*%
D12*
%TO.P,R22,1*%
%TO.N,/USB_DTR*%
X51175000Y-71000000D03*
%TO.P,R22,2*%
%TO.N,/ESP32 + UI/AUTO_Q1_BASE*%
X52825000Y-71000000D03*
%TD*%
D49*
%TO.P,C63,1*%
%TO.N,/Composite Video/VIDEO_SRC*%
X87750000Y-84000000D03*
%TO.P,C63,2*%
%TO.N,/Composite Video/VIDEO_AC_OPTION*%
X94250000Y-84000000D03*
%TD*%
D11*
%TO.P,TP15,1,1_1*%
%TO.N,/ESP32 + UI/EXP_GPIO14*%
X31000000Y-47000000D03*
%TD*%
D12*
%TO.P,R30,1*%
%TO.N,/CAN_HS/CAN_HS_H_PHY*%
X81675000Y-25500000D03*
%TO.P,R30,2*%
%TO.N,/CAN_HS/CAN_HS_H*%
X83325000Y-25500000D03*
%TD*%
D11*
%TO.P,TP61,1,1_1*%
%TO.N,/Composite Video/VIDEO_BUF_OUT*%
X99000000Y-64000000D03*
%TD*%
D12*
%TO.P,R61,1*%
%TO.N,/Composite Video/VIDEO_DAC_SER*%
X83175000Y-75000000D03*
%TO.P,R61,2*%
%TO.N,/Composite Video/VIDEO_IN*%
X84825000Y-75000000D03*
%TD*%
D50*
%TO.P,L1,1*%
%TO.N,/USB + Power/SW_3V3*%
X41800000Y-57000000D03*
%TO.P,L1,2*%
%TO.N,/+3V3*%
X44800000Y-57000000D03*
%TD*%
D11*
%TO.P,TP41,1,1_1*%
%TO.N,/CAN_FT/CAN_FT_L*%
X110000000Y-58000000D03*
%TD*%
D47*
%TO.P,Q2,1,B_1*%
%TO.N,/ESP32 + UI/AUTO_Q2_BASE*%
X45062500Y-71050000D03*
%TO.P,Q2,2,E_2*%
%TO.N,/USB_DTR*%
X45062500Y-72950000D03*
%TO.P,Q2,3,C_3*%
%TO.N,/ESP32 + UI/ESP_GPIO0*%
X46937500Y-72000000D03*
%TD*%
D21*
%TO.P,C60,1*%
%TO.N,/Composite Video/VIDEO_DAC_SER*%
X83050000Y-69000000D03*
%TO.P,C60,2*%
%TO.N,/Composite Video/VIDEO_IN*%
X84950000Y-69000000D03*
%TD*%
D12*
%TO.P,R31,1*%
%TO.N,/CAN_HS/CAN_HS_L_PHY*%
X81675000Y-29500000D03*
%TO.P,R31,2*%
%TO.N,/CAN_HS/CAN_HS_L*%
X83325000Y-29500000D03*
%TD*%
D51*
%TO.P,C1,1*%
%TO.N,/GND*%
X27500000Y-78975000D03*
%TO.P,C1,2*%
%TO.N,/USB + Power/USB_SHIELD*%
X27500000Y-76025000D03*
%TD*%
D52*
%TO.P,U10,1,GND_1*%
%TO.N,/GND*%
X36250000Y-27539999D03*
%TO.P,U10,2,VDD_2*%
%TO.N,/+3V3*%
X36250000Y-28809999D03*
%TO.P,U10,3,EN_3*%
%TO.N,/ESP32 + UI/ESP_EN*%
X36250000Y-30079999D03*
%TO.P,U10,4,SENSOR_VP_4*%
%TO.N,/ESP32 + UI/USER_BUTTON*%
X36250000Y-31349999D03*
%TO.P,U10,5,SENSOR_VN_5*%
%TO.N,unconnected-(U10-SENSOR_VN-Pad5)*%
X36250000Y-32619999D03*
%TO.P,U10,6,IO34_6*%
%TO.N,/ESP32 + UI/EXP_GPIO34*%
X36250000Y-33889999D03*
%TO.P,U10,7,IO35_7*%
%TO.N,/CAN_FT_ERR*%
X36250000Y-35159999D03*
%TO.P,U10,8,IO32_8*%
%TO.N,/CAN_FT_STB*%
X36250000Y-36429999D03*
%TO.P,U10,9,IO33_9*%
%TO.N,/CAN_FT_EN*%
X36250000Y-37699999D03*
%TO.P,U10,10,IO25_10*%
%TO.N,/VIDEO_DAC*%
X36250000Y-38969999D03*
%TO.P,U10,11,IO26_11*%
%TO.N,/ESP32 + UI/DAC2_RESERVED*%
X36250000Y-40239999D03*
%TO.P,U10,12,IO27_12*%
%TO.N,/ESP32 + UI/STATUS_LED*%
X36250000Y-41509999D03*
%TO.P,U10,13,IO14_13*%
%TO.N,/ESP32 + UI/EXP_GPIO14*%
X36250000Y-42779999D03*
%TO.P,U10,14,IO12_14*%
%TO.N,unconnected-(U10-IO12-Pad14)*%
X36250000Y-44049999D03*
D53*
%TO.P,U10,15,GND_15*%
%TO.N,/GND*%
X39285000Y-45299999D03*
%TO.P,U10,16,IO13_16*%
%TO.N,/CAN_FT_INT*%
X40555000Y-45299999D03*
%TO.P,U10,17,NC_17*%
%TO.N,unconnected-(U10-NC-Pad17)*%
X41825000Y-45299999D03*
%TO.P,U10,18,NC_18*%
%TO.N,unconnected-(U10-NC-Pad18)*%
X43095000Y-45299999D03*
%TO.P,U10,19,NC_19*%
%TO.N,unconnected-(U10-NC-Pad19)*%
X44365000Y-45299999D03*
%TO.P,U10,20,NC_20*%
%TO.N,unconnected-(U10-NC-Pad20)*%
X45635000Y-45299999D03*
%TO.P,U10,21,NC_21*%
%TO.N,unconnected-(U10-NC-Pad21)*%
X46905000Y-45299999D03*
%TO.P,U10,22,NC_22*%
%TO.N,unconnected-(U10-NC-Pad22)*%
X48175000Y-45299999D03*
%TO.P,U10,23,IO15_23*%
%TO.N,unconnected-(U10-IO15-Pad23)*%
X49445000Y-45299999D03*
%TO.P,U10,24,IO2_24*%
%TO.N,unconnected-(U10-IO2-Pad24)*%
X50715000Y-45299999D03*
D52*
%TO.P,U10,25,IO0_25*%
%TO.N,/ESP32 + UI/ESP_GPIO0*%
X53750000Y-44049999D03*
%TO.P,U10,26,IO4_26*%
%TO.N,/CAN_FT_CS*%
X53750000Y-42779999D03*
%TO.P,U10,27,IO16_27*%
%TO.N,/CAN_HS_TX*%
X53750000Y-41509999D03*
%TO.P,U10,28,IO17_28*%
%TO.N,/CAN_HS_RX*%
X53750000Y-40239999D03*
%TO.P,U10,29,IO5_29*%
%TO.N,unconnected-(U10-IO5-Pad29)*%
X53750000Y-38969999D03*
%TO.P,U10,30,IO18_30*%
%TO.N,/CAN_FT_SCK*%
X53750000Y-37699999D03*
%TO.P,U10,31,IO19_31*%
%TO.N,/CAN_FT_MISO*%
X53750000Y-36429999D03*
%TO.P,U10,32,NC_32*%
%TO.N,unconnected-(U10-NC-Pad32)*%
X53750000Y-35159999D03*
%TO.P,U10,33,IO21_33*%
%TO.N,/ESP32 + UI/OLED_SDA*%
X53750000Y-33889999D03*
%TO.P,U10,34,RXD0/IO3_34*%
%TO.N,/UART0_RX*%
X53750000Y-32619999D03*
%TO.P,U10,35,TXD0/IO1_35*%
%TO.N,/UART0_TX*%
X53750000Y-31349999D03*
%TO.P,U10,36,IO22_36*%
%TO.N,/ESP32 + UI/OLED_SCL*%
X53750000Y-30079999D03*
%TO.P,U10,37,IO23_37*%
%TO.N,/CAN_FT_MOSI*%
X53750000Y-28809999D03*
%TO.P,U10,38,GND_38*%
%TO.N,/GND*%
X53750000Y-27539999D03*
D54*
%TO.P,U10,39,GND_39*%
X42100000Y-33859999D03*
D55*
X42100000Y-34559999D03*
D54*
X42100000Y-35259999D03*
D55*
X42100000Y-35959999D03*
D54*
X42100000Y-36659999D03*
D55*
X42800000Y-33859999D03*
X42800000Y-35259999D03*
X42800000Y-36659999D03*
D54*
X43500000Y-33859999D03*
D55*
X43500000Y-34559999D03*
D54*
X43500000Y-35259999D03*
D55*
X43500000Y-35959999D03*
D54*
X43500000Y-36659999D03*
D55*
X44200000Y-33859999D03*
X44200000Y-35259999D03*
X44200000Y-36659999D03*
D54*
X44900000Y-33859999D03*
D55*
X44900000Y-34559999D03*
D54*
X44900000Y-35259999D03*
D55*
X44900000Y-35959999D03*
D54*
X44900000Y-36659999D03*
%TD*%
D21*
%TO.P,C18,1*%
%TO.N,/GND*%
X61550000Y-51500000D03*
%TO.P,C18,2*%
%TO.N,/USB + Power/+5V_USB*%
X63450000Y-51500000D03*
%TD*%
D16*
%TO.P,C42,1*%
%TO.N,/GND*%
X77225000Y-36000000D03*
%TO.P,C42,2*%
%TO.N,/CAN_FT/MCP_RESET_N*%
X78775000Y-36000000D03*
%TD*%
D12*
%TO.P,R23,1*%
%TO.N,/USB_RTS*%
X41175000Y-74500000D03*
%TO.P,R23,2*%
%TO.N,/ESP32 + UI/AUTO_Q2_BASE*%
X42825000Y-74500000D03*
%TD*%
D39*
%TO.P,C23,1*%
%TO.N,/GND*%
X46525000Y-48500000D03*
%TO.P,C23,2*%
%TO.N,/+3V3*%
X49475000Y-48500000D03*
%TD*%
D12*
%TO.P,R42,1*%
%TO.N,/CAN_FT/MCP_RXCAN*%
X75175000Y-52000000D03*
%TO.P,R42,2*%
%TO.N,/+3V3*%
X76825000Y-52000000D03*
%TD*%
D56*
%TO.P,U40,1,TXCAN_1*%
%TO.N,/CAN_FT/MCP_TXCAN*%
X70350000Y-38420000D03*
%TO.P,U40,2,RXCAN_2*%
%TO.N,/CAN_FT/MCP_RXCAN*%
X70350000Y-39690000D03*
%TO.P,U40,3,CLKOUT/SOF_3*%
%TO.N,unconnected-(U40-CLKOUT{slash}SOF-Pad3)*%
X70350000Y-40960000D03*
%TO.P,U40,4,~{TX0RTS}_4*%
%TO.N,unconnected-(U40-~{TX0RTS}-Pad4)*%
X70350000Y-42230000D03*
%TO.P,U40,5,~{TX1RTS}_5*%
%TO.N,unconnected-(U40-~{TX1RTS}-Pad5)*%
X70350000Y-43500000D03*
%TO.P,U40,6,~{TX2RTS}_6*%
%TO.N,unconnected-(U40-~{TX2RTS}-Pad6)*%
X70350000Y-44770000D03*
%TO.P,U40,7,OSC2_7*%
%TO.N,/CAN_FT/MCP_OSC2*%
X70350000Y-46040000D03*
%TO.P,U40,8,OSC1_8*%
%TO.N,/CAN_FT/MCP_OSC1*%
X70350000Y-47310000D03*
%TO.P,U40,9,VSS_9*%
%TO.N,/GND*%
X70350000Y-48580000D03*
%TO.P,U40,10,~{RX1BF}_10*%
%TO.N,unconnected-(U40-~{RX1BF}-Pad10)*%
X79650000Y-48580000D03*
%TO.P,U40,11,~{RX0BF}_11*%
%TO.N,unconnected-(U40-~{RX0BF}-Pad11)*%
X79650000Y-47310000D03*
%TO.P,U40,12,~{INT}_12*%
%TO.N,/CAN_FT_INT*%
X79650000Y-46040000D03*
%TO.P,U40,13,SCK_13*%
%TO.N,/CAN_FT_SCK*%
X79650000Y-44770000D03*
%TO.P,U40,14,SI_14*%
%TO.N,/CAN_FT_MOSI*%
X79650000Y-43500000D03*
%TO.P,U40,15,SO_15*%
%TO.N,/CAN_FT_MISO*%
X79650000Y-42230000D03*
%TO.P,U40,16,~{CS}_16*%
%TO.N,/CAN_FT_CS*%
X79650000Y-40960000D03*
%TO.P,U40,17,~{RESET}_17*%
%TO.N,/CAN_FT/MCP_RESET_N*%
X79650000Y-39690000D03*
%TO.P,U40,18,VDD_18*%
%TO.N,/+3V3*%
X79650000Y-38420000D03*
%TD*%
D45*
%TO.P,JP20,1,A_1*%
%TO.N,/CAN_HS/CAN_HS_H*%
X104350000Y-37000000D03*
D46*
%TO.P,JP20,2,B_2*%
%TO.N,/CAN_HS/CAN_HS_TERM*%
X105650000Y-37000000D03*
%TD*%
D12*
%TO.P,R62,1*%
%TO.N,/Composite Video/VIDEO_BUF_OUT*%
X98175000Y-72000000D03*
%TO.P,R62,2*%
%TO.N,/Composite Video/VIDEO_SRC*%
X99825000Y-72000000D03*
%TD*%
D45*
%TO.P,JP62,1,A_1*%
%TO.N,/Composite Video/VIDEO_PASSIVE*%
X81350000Y-78000000D03*
D46*
%TO.P,JP62,2,B_2*%
%TO.N,/Composite Video/VIDEO_RCA*%
X82650000Y-78000000D03*
%TD*%
D11*
%TO.P,TP8,1,1_1*%
%TO.N,/USB + Power/USB_PWR_FAULT*%
X48000000Y-64000000D03*
%TD*%
D13*
%TO.P,R6,1*%
%TO.N,/GND*%
X33500000Y-52325000D03*
%TO.P,R6,2*%
%TO.N,/USB + Power/USB_VBUS_SENSE*%
X33500000Y-50675000D03*
%TD*%
D21*
%TO.P,C46,1*%
%TO.N,/GND*%
X85050000Y-51000000D03*
%TO.P,C46,2*%
%TO.N,/+5V_FT*%
X86950000Y-51000000D03*
%TD*%
D45*
%TO.P,JP61,1,A_1*%
%TO.N,/Composite Video/VIDEO_AC_OPTION*%
X98350000Y-68000000D03*
D46*
%TO.P,JP61,2,B_2*%
%TO.N,/Composite Video/VIDEO_RCA*%
X99650000Y-68000000D03*
%TD*%
D57*
%TO.P,D60,1,A1_1*%
%TO.N,/Composite Video/VIDEO_RCA*%
X104000000Y-71050000D03*
%TO.P,D60,2,A2_2*%
%TO.N,/GND*%
X104000000Y-68950000D03*
%TD*%
D58*
%TO.P,U4,1,SW_1*%
%TO.N,/USB + Power/SW_3V3*%
X39962500Y-57750000D03*
%TO.P,U4,2,SW_2*%
X39962500Y-57250000D03*
%TO.P,U4,3,SW_3*%
X39962500Y-56750000D03*
%TO.P,U4,4,PG_4*%
%TO.N,/USB + Power/PG_3V3*%
X39962500Y-56250000D03*
D59*
%TO.P,U4,5,FB_5*%
%TO.N,/GND*%
X39250000Y-55537500D03*
%TO.P,U4,6,GND_6*%
X38750000Y-55537500D03*
%TO.P,U4,7,FSW_7*%
X38250000Y-55537500D03*
%TO.P,U4,8,DEF_8*%
X37750000Y-55537500D03*
D58*
%TO.P,U4,9,SS/TR_9*%
%TO.N,/USB + Power/SS_3V3*%
X37037500Y-56250000D03*
%TO.P,U4,10,VIN_10*%
%TO.N,/USB + Power/+5V_USB*%
X37037500Y-56750000D03*
%TO.P,U4,11,VIN_11*%
X37037500Y-57250000D03*
%TO.P,U4,12,VIN_12*%
X37037500Y-57750000D03*
D59*
%TO.P,U4,13,EN_13*%
X37750000Y-58462500D03*
%TO.P,U4,14,VOS_14*%
%TO.N,/+3V3*%
X38250000Y-58462500D03*
%TO.P,U4,15,GND_15*%
%TO.N,/GND*%
X38750000Y-58462500D03*
%TO.P,U4,16,GND_16*%
X39250000Y-58462500D03*
D60*
%TO.P,U4,17,GND_17*%
X39090000Y-57590000D03*
X39090000Y-56410000D03*
D61*
X38500000Y-57000000D03*
D60*
X37910000Y-57590000D03*
X37910000Y-56410000D03*
%TD*%
D12*
%TO.P,R63,1*%
%TO.N,/VIDEO_DAC*%
X78175000Y-75000000D03*
%TO.P,R63,2*%
%TO.N,/Composite Video/VIDEO_PASSIVE*%
X79825000Y-75000000D03*
%TD*%
D21*
%TO.P,C20,1*%
%TO.N,/GND*%
X31550000Y-32000000D03*
%TO.P,C20,2*%
%TO.N,/ESP32 + UI/ESP_EN*%
X33450000Y-32000000D03*
%TD*%
D62*
%TO.P,R14,1*%
%TO.N,/USB + Power/PG_5VFT*%
X56825000Y-57250000D03*
%TO.P,R14,2*%
%TO.N,/+3V3*%
X55175000Y-57250000D03*
%TD*%
D11*
%TO.P,TP4,1,1_1*%
%TO.N,/+5V_FT*%
X71000000Y-57500000D03*
%TD*%
D16*
%TO.P,C8,1*%
%TO.N,/GND*%
X32725000Y-59500000D03*
%TO.P,C8,2*%
%TO.N,/USB + Power/+5V_USB*%
X34275000Y-59500000D03*
%TD*%
D62*
%TO.P,R26,1*%
%TO.N,/ESP32 + UI/STATUS_LED*%
X32825000Y-43000000D03*
%TO.P,R26,2*%
%TO.N,/ESP32 + UI/STATUS_LED_A*%
X31175000Y-43000000D03*
%TD*%
D13*
%TO.P,R5,1*%
%TO.N,/USB + Power/USB_VBUS_SENSE*%
X30500000Y-52325000D03*
%TO.P,R5,2*%
%TO.N,/USB + Power/VBUS_RAW*%
X30500000Y-50675000D03*
%TD*%
D16*
%TO.P,C12,1*%
%TO.N,/GND*%
X56725000Y-55000000D03*
%TO.P,C12,2*%
%TO.N,/USB + Power/VAUX_5VFT*%
X58275000Y-55000000D03*
%TD*%
D63*
%TO.P,J10,1,Pin_1_1*%
%TO.N,/+3V3*%
X34000000Y-86000000D03*
D64*
%TO.P,J10,2,Pin_2_2*%
%TO.N,/GND*%
X36000000Y-86000000D03*
%TO.P,J10,3,Pin_3_3*%
%TO.N,/ESP32 + UI/OLED_SCL*%
X38000000Y-86000000D03*
%TO.P,J10,4,Pin_4_4*%
%TO.N,/ESP32 + UI/OLED_SDA*%
X40000000Y-86000000D03*
%TD*%
D12*
%TO.P,R10,1*%
%TO.N,/USB + Power/PG_3V3*%
X41675000Y-51500000D03*
%TO.P,R10,2*%
%TO.N,/+3V3*%
X43325000Y-51500000D03*
%TD*%
D21*
%TO.P,C7,1*%
%TO.N,/GND*%
X32550000Y-56500000D03*
%TO.P,C7,2*%
%TO.N,/USB + Power/+5V_USB*%
X34450000Y-56500000D03*
%TD*%
D12*
%TO.P,R60,1*%
%TO.N,/VIDEO_DAC*%
X79175000Y-70500000D03*
%TO.P,R60,2*%
%TO.N,/Composite Video/VIDEO_DAC_SER*%
X80825000Y-70500000D03*
%TD*%
%TO.P,R20,1*%
%TO.N,/ESP32 + UI/ESP_EN*%
X56175000Y-67000000D03*
%TO.P,R20,2*%
%TO.N,/+3V3*%
X57825000Y-67000000D03*
%TD*%
D11*
%TO.P,TP6,1,1_1*%
%TO.N,/UART0_TX*%
X50500000Y-57500000D03*
%TD*%
D62*
%TO.P,R12,1*%
%TO.N,/USB + Power/FB_5VFT*%
X57325000Y-59500000D03*
%TO.P,R12,2*%
%TO.N,/+5V_FT*%
X55675000Y-59500000D03*
%TD*%
D11*
%TO.P,TP20,1,1_1*%
%TO.N,/CAN_HS/CAN_HS_H*%
X78000000Y-21500000D03*
%TD*%
D16*
%TO.P,C61,1*%
%TO.N,/GND*%
X87225000Y-77000000D03*
%TO.P,C61,2*%
%TO.N,/+3V3*%
X88775000Y-77000000D03*
%TD*%
D12*
%TO.P,R32,1*%
%TO.N,/CAN_HS/CAN_HS_TERM*%
X98175000Y-37000000D03*
%TO.P,R32,2*%
%TO.N,/CAN_HS/CAN_HS_L*%
X99825000Y-37000000D03*
%TD*%
D11*
%TO.P,TP60,1,1_1*%
%TO.N,/VIDEO_DAC*%
X77000000Y-67000000D03*
%TD*%
D27*
%TO.P,C6,1*%
%TO.N,/GND*%
X36000000Y-63775000D03*
%TO.P,C6,2*%
%TO.N,/USB + Power/+5V_USB*%
X36000000Y-62225000D03*
%TD*%
D11*
%TO.P,TP62,1,1_1*%
%TO.N,/Composite Video/VIDEO_RCA*%
X104000000Y-64000000D03*
%TD*%
D14*
%TO.P,D40,1,K1/CAN1_1*%
%TO.N,/CAN_FT/CAN_FT_H*%
X95050000Y-47937500D03*
%TO.P,D40,2,K2/CAN2_2*%
%TO.N,/CAN_FT/CAN_FT_L*%
X96950000Y-47937500D03*
%TO.P,D40,3,CC_3*%
%TO.N,/GND*%
X96000000Y-46062500D03*
%TD*%
D11*
%TO.P,TP13,1,1_1*%
%TO.N,/VIDEO_DAC*%
X67000000Y-80000000D03*
%TD*%
D12*
%TO.P,R45,1*%
%TO.N,/GND*%
X84175000Y-36000000D03*
%TO.P,R45,2*%
%TO.N,/CAN_FT_EN*%
X85825000Y-36000000D03*
%TD*%
D21*
%TO.P,C2,1*%
%TO.N,/GND*%
X31550000Y-77000000D03*
%TO.P,C2,2*%
%TO.N,/+3V3*%
X33450000Y-77000000D03*
%TD*%
D48*
%TO.P,SW1,1,1_1*%
%TO.N,/ESP32 + UI/ESP_EN*%
X48950000Y-82750000D03*
X58050000Y-82750000D03*
%TO.P,SW1,2,2_2*%
%TO.N,/GND*%
X48950000Y-87250000D03*
X58050000Y-87250000D03*
%TD*%
%TO.P,SW2,1,1_1*%
%TO.N,/ESP32 + UI/ESP_GPIO0*%
X60950000Y-82750000D03*
X70050000Y-82750000D03*
%TO.P,SW2,2,2_2*%
%TO.N,/GND*%
X60950000Y-87250000D03*
X70050000Y-87250000D03*
%TD*%
D38*
%TO.P,R48,1*%
%TO.N,/CAN_FT/TJA_RTH*%
X88000000Y-54175000D03*
%TO.P,R48,2*%
%TO.N,/CAN_FT/FT_TERM_H*%
X88000000Y-55825000D03*
%TD*%
D62*
%TO.P,R7,1*%
%TO.N,/USB + Power/CP2102_RST*%
X37825000Y-74000000D03*
%TO.P,R7,2*%
%TO.N,/+3V3*%
X36175000Y-74000000D03*
%TD*%
D11*
%TO.P,TP40,1,1_1*%
%TO.N,/CAN_FT/CAN_FT_H*%
X106000000Y-58000000D03*
%TD*%
D65*
%TO.P,U2,1,~{DCD}_1*%
%TO.N,unconnected-(U2-~{DCD}-Pad1)*%
X36550000Y-67500000D03*
%TO.P,U2,2,~{RI}/CLK_2*%
%TO.N,unconnected-(U2-~{RI}{slash}CLK-Pad2)*%
X36550000Y-68000000D03*
%TO.P,U2,3,GND_3*%
%TO.N,/GND*%
X36550000Y-68500000D03*
%TO.P,U2,4,D+_4*%
%TO.N,/USB + Power/USB_DP*%
X36550000Y-69000000D03*
%TO.P,U2,5,D-_5*%
%TO.N,/USB + Power/USB_DM*%
X36550000Y-69500000D03*
%TO.P,U2,6,VDD_6*%
%TO.N,/+3V3*%
X36550000Y-70000000D03*
%TO.P,U2,7,VREGIN_7*%
X36550000Y-70500000D03*
D66*
%TO.P,U2,8,VBUS_8*%
%TO.N,/USB + Power/USB_VBUS_SENSE*%
X37500000Y-71450000D03*
%TO.P,U2,9,~{RST}_9*%
%TO.N,/USB + Power/CP2102_RST*%
X38000000Y-71450000D03*
%TO.P,U2,10,NC_10*%
%TO.N,unconnected-(U2-NC-Pad10)*%
X38500000Y-71450000D03*
%TO.P,U2,11,~{SUSPEND}_11*%
%TO.N,unconnected-(U2-~{SUSPEND}-Pad11)*%
X39000000Y-71450000D03*
%TO.P,U2,12,SUSPEND_12*%
%TO.N,unconnected-(U2-SUSPEND-Pad12)*%
X39500000Y-71450000D03*
%TO.P,U2,13,CHREN_13*%
%TO.N,unconnected-(U2-CHREN-Pad13)*%
X40000000Y-71450000D03*
%TO.P,U2,14,CHR1_14*%
%TO.N,unconnected-(U2-CHR1-Pad14)*%
X40500000Y-71450000D03*
D65*
%TO.P,U2,15,CHR0_15*%
%TO.N,unconnected-(U2-CHR0-Pad15)*%
X41450000Y-70500000D03*
%TO.P,U2,16,~{WAKEUP}/GPIO.3_16*%
%TO.N,unconnected-(U2-~{WAKEUP}{slash}GPIO.3-Pad16)*%
X41450000Y-70000000D03*
%TO.P,U2,17,RS485/GPIO.2_17*%
%TO.N,unconnected-(U2-RS485{slash}GPIO.2-Pad17)*%
X41450000Y-69500000D03*
%TO.P,U2,18,~{RXT}/GPIO.1_18*%
%TO.N,unconnected-(U2-~{RXT}{slash}GPIO.1-Pad18)*%
X41450000Y-69000000D03*
%TO.P,U2,19,~{TXT}/GPIO.0_19*%
%TO.N,unconnected-(U2-~{TXT}{slash}GPIO.0-Pad19)*%
X41450000Y-68500000D03*
%TO.P,U2,20,GPIO.6_20*%
%TO.N,unconnected-(U2-GPIO.6-Pad20)*%
X41450000Y-68000000D03*
%TO.P,U2,21,GPIO.5_21*%
%TO.N,unconnected-(U2-GPIO.5-Pad21)*%
X41450000Y-67500000D03*
D66*
%TO.P,U2,22,GPIO.4_22*%
%TO.N,unconnected-(U2-GPIO.4-Pad22)*%
X40500000Y-66550000D03*
%TO.P,U2,23,~{CTS}_23*%
%TO.N,unconnected-(U2-~{CTS}-Pad23)*%
X40000000Y-66550000D03*
%TO.P,U2,24,~{RTS}_24*%
%TO.N,/USB_RTS*%
X39500000Y-66550000D03*
%TO.P,U2,25,RXD_25*%
%TO.N,/UART0_TX*%
X39000000Y-66550000D03*
%TO.P,U2,26,TXD_26*%
%TO.N,/UART0_RX*%
X38500000Y-66550000D03*
%TO.P,U2,27,~{DSR}_27*%
%TO.N,unconnected-(U2-~{DSR}-Pad27)*%
X38000000Y-66550000D03*
%TO.P,U2,28,~{DTR}_28*%
%TO.N,/USB_DTR*%
X37500000Y-66550000D03*
D67*
%TO.P,U2,29,GND_29*%
%TO.N,/GND*%
X39000000Y-69000000D03*
%TD*%
D45*
%TO.P,JP40,1,A_1*%
%TO.N,/CAN_FT/FT_TERM_H*%
X94350000Y-56000000D03*
D46*
%TO.P,JP40,2,B_2*%
%TO.N,/CAN_FT/CAN_FT_H*%
X95650000Y-56000000D03*
%TD*%
D16*
%TO.P,C30,1*%
%TO.N,/GND*%
X70025000Y-28600000D03*
%TO.P,C30,2*%
%TO.N,/+3V3*%
X71575000Y-28600000D03*
%TD*%
D21*
%TO.P,C17,1*%
%TO.N,/GND*%
X56550000Y-51500000D03*
%TO.P,C17,2*%
%TO.N,/USB + Power/+5V_USB*%
X58450000Y-51500000D03*
%TD*%
D13*
%TO.P,R2,1*%
%TO.N,/GND*%
X29000000Y-84825000D03*
%TO.P,R2,2*%
%TO.N,/USB + Power/USB_CC2*%
X29000000Y-83175000D03*
%TD*%
D16*
%TO.P,C43,1*%
%TO.N,/GND*%
X65725000Y-49500000D03*
%TO.P,C43,2*%
%TO.N,/CAN_FT/MCP_OSC1*%
X67275000Y-49500000D03*
%TD*%
D45*
%TO.P,JP60,1,A_1*%
%TO.N,/Composite Video/VIDEO_SRC*%
X94350000Y-68000000D03*
D46*
%TO.P,JP60,2,B_2*%
%TO.N,/Composite Video/VIDEO_RCA*%
X95650000Y-68000000D03*
%TD*%
D62*
%TO.P,R11,1*%
%TO.N,/USB + Power/EN_5VFT*%
X55325000Y-53500000D03*
%TO.P,R11,2*%
%TO.N,/USB + Power/+5V_USB*%
X53675000Y-53500000D03*
%TD*%
D11*
%TO.P,TP14,1,1_1*%
%TO.N,/ESP32 + UI/EXP_GPIO34*%
X30000000Y-35000000D03*
%TD*%
%TO.P,TP11,1,1_1*%
%TO.N,/ESP32 + UI/ESP_GPIO0*%
X59000000Y-80000000D03*
%TD*%
D68*
%TO.N,/USB + Power/+5V_USB*%
X35200000Y-55500000D03*
X61775000Y-53000000D03*
X55000000Y-52500000D03*
X35000000Y-60500000D03*
X50000000Y-67500000D03*
X31500000Y-55550000D03*
X41000000Y-59600000D03*
D69*
%TO.N,/GND*%
X35500000Y-68500000D03*
X30750000Y-69000000D03*
X60800000Y-51500000D03*
X81800000Y-34000000D03*
X80200000Y-36000000D03*
X46200000Y-48500000D03*
X67800000Y-43200000D03*
X60950000Y-86000000D03*
X68900000Y-28600000D03*
X69200000Y-49400000D03*
X30600000Y-77000000D03*
X30800000Y-29800000D03*
X65200000Y-50100000D03*
X38000000Y-47000000D03*
X45500000Y-34800000D03*
X28500000Y-64500000D03*
X26500000Y-51000000D03*
X58600000Y-56000000D03*
X63050000Y-65000000D03*
X35200000Y-78200000D03*
X24000000Y-60000000D03*
X64200000Y-47800000D03*
X84175000Y-34500000D03*
X30800000Y-27500000D03*
X86300000Y-34000000D03*
X96000000Y-44800000D03*
X20800000Y-58000000D03*
X71500000Y-37500000D03*
X29000000Y-85250000D03*
X27500000Y-73500000D03*
X35000000Y-64000000D03*
X27000000Y-84500000D03*
X86300000Y-77000000D03*
X63200000Y-57500000D03*
X58800000Y-58250000D03*
X62500000Y-40500000D03*
X84200000Y-51000000D03*
X55550000Y-65000000D03*
X42525000Y-78000000D03*
X86500000Y-42000000D03*
X39000000Y-54700000D03*
X28500000Y-79000000D03*
X35200000Y-26900000D03*
X37800000Y-52775000D03*
X39800000Y-59200000D03*
X31900000Y-59500000D03*
X54800000Y-61500000D03*
X76200000Y-36000000D03*
X31550000Y-30800000D03*
X38000000Y-54700000D03*
X56000000Y-55000000D03*
X52500000Y-27540000D03*
X49800000Y-55500000D03*
X92000000Y-75200000D03*
X26500000Y-43000000D03*
X59050000Y-65000000D03*
X27000000Y-56500000D03*
X70050000Y-86000000D03*
X86500000Y-25500000D03*
X48000000Y-86000000D03*
X73500000Y-65000000D03*
X27500000Y-61000000D03*
X34500000Y-53000000D03*
X72000000Y-86000000D03*
X87000000Y-72000000D03*
X72900000Y-27350000D03*
X71000000Y-87250000D03*
X59400000Y-54000000D03*
X68600000Y-34000000D03*
X55800000Y-51500000D03*
X49100000Y-59500000D03*
X106000000Y-69000000D03*
X60200000Y-61775000D03*
X59500000Y-55500000D03*
X94300000Y-74200000D03*
X39000000Y-70000000D03*
X31800000Y-56500000D03*
%TO.N,/USB + Power/USB_SHIELD*%
X25600000Y-75500000D03*
%TO.N,/USB + Power/USB_PWR_FAULT*%
X46000000Y-62200000D03*
X31000000Y-58500000D03*
%TO.N,/+3V3*%
X58800000Y-67000000D03*
D68*
X44000000Y-51500000D03*
X49500000Y-48500000D03*
X95500000Y-79000000D03*
X34300000Y-29800000D03*
X40500000Y-49500000D03*
X54500000Y-57250000D03*
X46000000Y-59175000D03*
X46000000Y-57000000D03*
X52000000Y-48000000D03*
X72300000Y-31500000D03*
X73800000Y-33200000D03*
X84000000Y-56000000D03*
X52500000Y-65000000D03*
D69*
X44800000Y-83000000D03*
X59500000Y-69500000D03*
X64500000Y-49500000D03*
D68*
X61500000Y-44500000D03*
X34000000Y-74800000D03*
X79000000Y-32299999D03*
D69*
X48800000Y-80500000D03*
D68*
X38000000Y-60000000D03*
X90000000Y-77000000D03*
D69*
%TO.N,/CAN_HS/CAN_HS_H*%
X102500000Y-34500000D03*
%TO.N,/CAN_FT_STB*%
X82500000Y-38000000D03*
X76000000Y-49000000D03*
X82500000Y-44770000D03*
X32500000Y-36430000D03*
%TO.N,/UART0_RX*%
X38500000Y-64599999D03*
X59500000Y-35200000D03*
X53000000Y-58500000D03*
X56500000Y-41450000D03*
X43500000Y-61000000D03*
X50200000Y-61000000D03*
X53000000Y-61000000D03*
X59500000Y-36500000D03*
X59500000Y-47900000D03*
%TO.N,/Composite Video/VIDEO_RCA*%
X102000000Y-81000000D03*
X108000000Y-76000000D03*
X83500000Y-78000000D03*
%TO.N,/ESP32 + UI/OLED_SCL*%
X55500000Y-30080000D03*
X43200000Y-84000000D03*
X76000000Y-29000000D03*
%TO.N,/CAN_FT/CAN_FT_H_PHY*%
X93000000Y-38000000D03*
X93000000Y-43500000D03*
%TO.N,/CAN_FT/CAN_FT_H*%
X94000000Y-50000000D03*
X94000000Y-37500000D03*
X106000000Y-60000000D03*
X96500000Y-52000000D03*
D68*
%TO.N,/USB + Power/VBUS_RAW*%
X25000000Y-54000000D03*
X27000000Y-63500000D03*
X29400000Y-64000000D03*
X31000000Y-65500000D03*
X31500000Y-69000000D03*
X31000000Y-72500000D03*
D69*
%TO.N,/ESP32 + UI/ESP_GPIO0*%
X60000000Y-72000000D03*
X69500000Y-72000000D03*
X48000000Y-72000000D03*
X62500000Y-46000000D03*
X57000000Y-72000000D03*
X60000000Y-80500000D03*
X69500000Y-56500000D03*
D68*
%TO.N,/CAN_FT/MCP_RESET_N*%
X81000000Y-39690000D03*
X68000000Y-51000000D03*
X78500000Y-37500000D03*
%TO.N,/+5V_FT*%
X82500000Y-47310000D03*
X71000000Y-58500000D03*
X90000000Y-34000000D03*
X91200000Y-44770000D03*
D69*
X60950000Y-62800000D03*
D68*
X87800000Y-51000000D03*
D69*
X57450000Y-62800000D03*
X64950000Y-62800000D03*
D68*
X90500000Y-39690000D03*
D69*
X62000000Y-60225000D03*
%TO.N,/USB + Power/USB_ILIM*%
X29400000Y-60200000D03*
X30800000Y-56500000D03*
%TO.N,/ESP32 + UI/OLED_SDA*%
X46500000Y-84000000D03*
X58000000Y-34800000D03*
%TO.N,/CAN_HS_TX*%
X70800000Y-25000000D03*
X55200000Y-41500000D03*
%TO.N,/CAN_HS_RX*%
X67500000Y-32500000D03*
X74000000Y-32500000D03*
%TO.N,/ESP32 + UI/ESP_EN*%
X47600000Y-69500000D03*
X55200000Y-69000000D03*
X44000000Y-63000000D03*
X54000000Y-80500000D03*
X28500000Y-33500000D03*
%TO.N,/ESP32 + UI/USER_BUTTON*%
X58500000Y-49500000D03*
X21500000Y-60000000D03*
X38000000Y-31350000D03*
X21500000Y-75500000D03*
X84000000Y-88500000D03*
%TO.N,/Composite Video/VIDEO_BUF_OUT*%
X99000000Y-65000000D03*
X96000000Y-70500000D03*
%TO.N,/USB + Power/USB_CC1*%
X27000000Y-80600000D03*
X24000000Y-67750000D03*
X24000000Y-72000000D03*
%TO.N,/CAN_FT_ERR*%
X82500000Y-43500000D03*
X32500000Y-35160000D03*
X80000000Y-52000000D03*
%TO.N,/CAN_FT/CAN_FT_L*%
X106000000Y-50000000D03*
X110000000Y-60000000D03*
%TO.N,/CAN_FT/MCP_TXCAN*%
X82500000Y-40960000D03*
X68800000Y-38420000D03*
%TO.N,/CAN_FT/MCP_RXCAN*%
X68800000Y-39690000D03*
X82500000Y-42230000D03*
X74000000Y-50500000D03*
%TO.N,/CAN_FT_EN*%
X88000000Y-36000000D03*
X82500000Y-46040000D03*
X73000000Y-46040000D03*
X78000000Y-46040000D03*
X75000000Y-46040000D03*
X34500000Y-37700000D03*
%TO.N,/CAN_FT_INT*%
X80500000Y-62000000D03*
X40555000Y-47500000D03*
X83500000Y-53000000D03*
X81000000Y-66000000D03*
X82000000Y-64000000D03*
X70000000Y-66000000D03*
X81000000Y-58500000D03*
%TO.N,/USB + Power/PG_5VFT*%
X59000000Y-57250000D03*
X56000000Y-56500000D03*
%TO.N,/USB + Power/EN_5VFT*%
X55325000Y-54500000D03*
X60775000Y-55400000D03*
%TO.N,/CAN_FT/FT_TERM_L*%
X97500000Y-58000000D03*
X92500000Y-57000000D03*
%TO.N,/USB + Power/USB_CONN_DP*%
X28000000Y-68050000D03*
X27500000Y-70500000D03*
%TO.N,/USB + Power/USB_CONN_DM*%
X27500000Y-67000000D03*
X29000000Y-69950000D03*
%TO.N,/USB + Power/USB_CC2*%
X22700000Y-76500000D03*
X22700000Y-74500000D03*
X29000000Y-83100000D03*
X22700000Y-72000000D03*
X22700000Y-70750000D03*
%TO.N,/ESP32 + UI/AUTO_Q1_BASE*%
X53500000Y-70500000D03*
X44300000Y-66599999D03*
%TO.N,/USB_RTS*%
X44200000Y-68500000D03*
X40500000Y-73500000D03*
%TO.N,/USB_DTR*%
X44000000Y-72700000D03*
X37500000Y-65500000D03*
X50300000Y-71500000D03*
X42500000Y-69000000D03*
%TO.N,/Composite Video/VIDEO_SRC*%
X100500000Y-72000000D03*
X88000000Y-83000000D03*
X94000000Y-67000000D03*
%TO.N,/Composite Video/VIDEO_AC_OPTION*%
X97000000Y-83000000D03*
X97000000Y-68000000D03*
%TO.N,/ESP32 + UI/EXP_GPIO14*%
X35500000Y-46000000D03*
X35500000Y-42780000D03*
%TO.N,/ESP32 + UI/AUTO_Q2_BASE*%
X42800000Y-73500000D03*
X44200000Y-70500000D03*
%TO.N,/ESP32 + UI/EXP_GPIO34*%
X35800000Y-33890000D03*
X30000000Y-34000000D03*
%TO.N,/VIDEO_DAC*%
X65000000Y-87500000D03*
X78000000Y-72000000D03*
X34000000Y-38970000D03*
X34000000Y-72200000D03*
X32000000Y-75000000D03*
X70000000Y-78000000D03*
X31000000Y-81000000D03*
X67000000Y-81000000D03*
%TO.N,/CAN_FT_SCK*%
X82000000Y-60000000D03*
X70000000Y-60000000D03*
X55500000Y-37700000D03*
X56000000Y-34000000D03*
X66500000Y-35000000D03*
X81000000Y-44000000D03*
%TO.N,/CAN_FT_MISO*%
X70000000Y-54500000D03*
X55000000Y-36430000D03*
X67500000Y-34000000D03*
X72000000Y-42230000D03*
X56000000Y-32500000D03*
%TO.N,/UART0_TX*%
X60500000Y-35000000D03*
X51000000Y-58500000D03*
X60500000Y-37300000D03*
X60500000Y-47100000D03*
X60500000Y-31350000D03*
X39000000Y-65400000D03*
%TO.N,/CAN_FT_MOSI*%
X81500000Y-42800000D03*
X55500000Y-28810000D03*
X87000000Y-30000000D03*
%TO.N,/USB + Power/USB_VBUS_SENSE*%
X31500000Y-51500000D03*
X37500000Y-72500000D03*
X35200000Y-50500000D03*
%TD*%
%TO.N,/USB + Power/+5V_USB*%
D70*
X49000000Y-76000000D02*
X47500000Y-78000000D01*
X37037500Y-57250000D02*
X36000000Y-57250000D01*
X58450000Y-52500000D02*
X59000000Y-53000000D01*
X34450000Y-56500000D02*
X35200000Y-55500000D01*
X36000000Y-57250000D02*
X35200000Y-56500000D01*
X50000000Y-67500000D02*
X49000000Y-70200000D01*
X35200000Y-56500000D02*
X34450000Y-56500000D01*
X61775000Y-54000000D02*
X61775000Y-55500000D01*
X58450000Y-51500000D02*
X58450000Y-52500000D01*
X31500000Y-55550000D02*
X33000000Y-54000000D01*
D71*
X36200000Y-57750000D02*
X37037500Y-57750000D01*
D70*
X63450000Y-53000000D02*
X61775000Y-53000000D01*
X59000000Y-53000000D02*
X61775000Y-53000000D01*
D71*
X61775000Y-55500000D02*
X61775000Y-56350000D01*
D72*
X37037500Y-56750000D02*
X37037500Y-57750000D01*
D70*
X61775000Y-53000000D02*
X61775000Y-54000000D01*
X47500000Y-78000000D02*
X45475000Y-77000000D01*
X63450000Y-51500000D02*
X63450000Y-53000000D01*
D71*
X37750000Y-58462500D02*
X36800000Y-58462000D01*
D70*
X35500000Y-59500000D02*
X34275000Y-59500000D01*
X30800000Y-55550000D02*
X31500000Y-55550000D01*
D71*
X53675000Y-53500000D02*
X55000000Y-52500000D01*
D70*
X36000000Y-62225000D02*
X35000000Y-60500000D01*
X49000000Y-70200000D02*
X49000000Y-76000000D01*
X36800000Y-58462000D02*
X35500000Y-59500000D01*
D71*
X30137500Y-55550000D02*
X30800000Y-55550000D01*
X36800000Y-58462500D02*
X36200000Y-57750000D01*
%TO.N,/GND*%
X48950000Y-87250000D02*
X48000000Y-86000000D01*
D73*
X61000000Y-61775000D02*
X60200000Y-61775000D01*
X59050000Y-64000000D02*
X59050000Y-65000000D01*
D72*
X39250000Y-55537500D02*
X37750000Y-55537500D01*
D71*
X36550000Y-68500000D02*
X35500000Y-68500000D01*
D73*
X63050000Y-64000000D02*
X63050000Y-65000000D01*
X39250000Y-58462500D02*
X39800000Y-59200000D01*
D71*
X104000000Y-68950000D02*
X105500000Y-68950000D01*
X70350000Y-48580000D02*
X69200000Y-49400000D01*
X72950000Y-87250000D02*
X72000000Y-86000000D01*
X36000000Y-63775000D02*
X35000000Y-64000000D01*
X93050000Y-77000000D02*
X92000000Y-75200000D01*
X77225000Y-36000000D02*
X76200000Y-36000000D01*
X39285000Y-45299999D02*
X38000000Y-47000000D01*
X36250000Y-27539999D02*
X35200000Y-26900000D01*
X26180000Y-65800000D02*
X27000000Y-65800000D01*
X80775000Y-34000000D02*
X81800000Y-34000000D01*
X84175000Y-36000000D02*
X84175000Y-34500000D01*
X105500000Y-68950000D02*
X106000000Y-69000000D01*
D70*
X69550000Y-34000000D02*
X68600000Y-34000000D01*
D71*
X42100000Y-33859999D02*
X45500000Y-34800000D01*
X39000000Y-69000000D02*
X39000000Y-70000000D01*
X28175000Y-61000000D02*
X27500000Y-61000000D01*
D73*
X61550000Y-51500000D02*
X60800000Y-51500000D01*
D71*
X35225000Y-77000000D02*
X35200000Y-78200000D01*
X31550000Y-32000000D02*
X31550000Y-30800000D01*
X31725000Y-29800000D02*
X30800000Y-29800000D01*
X26180000Y-72200000D02*
X27500000Y-73500000D01*
D70*
X46525000Y-48500000D02*
X46200000Y-48500000D01*
D71*
X67000000Y-43850000D02*
X67800000Y-43200000D01*
X71500000Y-87250000D02*
X71000000Y-87250000D01*
X88975000Y-40960000D02*
X86500000Y-42000000D01*
X59810000Y-58250000D02*
X58800000Y-58250000D01*
X70025000Y-28600000D02*
X68900000Y-28600000D01*
D72*
X38750000Y-58462500D02*
X39250000Y-58462500D01*
D70*
X73050000Y-36000000D02*
X71500000Y-37500000D01*
D71*
X29000000Y-84825000D02*
X29000000Y-85250000D01*
D73*
X38000000Y-55538000D02*
X38000000Y-54700000D01*
X32725000Y-59500000D02*
X31900000Y-59500000D01*
X60225000Y-54000000D02*
X59400000Y-54000000D01*
D71*
X65000000Y-47150000D02*
X64200000Y-47800000D01*
X93475000Y-73905000D02*
X94300000Y-74200000D01*
X87500000Y-72640000D02*
X87000000Y-72000000D01*
X72950000Y-87250000D02*
X82050000Y-87250000D01*
X42525000Y-77000000D02*
X42525000Y-78000000D01*
X72950000Y-87250000D02*
X71500000Y-87250000D01*
X87225000Y-77000000D02*
X86300000Y-77000000D01*
X72000000Y-66000000D02*
X73500000Y-65000000D01*
X63225000Y-41000000D02*
X62500000Y-40500000D01*
X93475000Y-73905000D02*
X94300000Y-74200000D01*
X87225000Y-77000000D02*
X86300000Y-77000000D01*
D73*
X56725000Y-55000000D02*
X56000000Y-55000000D01*
D71*
X24675000Y-61500000D02*
X24000000Y-60000000D01*
X88525000Y-72635000D02*
X87500000Y-72640000D01*
X27000000Y-65800000D02*
X28500000Y-64500000D01*
X33500000Y-52325000D02*
X34500000Y-53000000D01*
X48950000Y-87250000D02*
X58050000Y-87250000D01*
D73*
X48950000Y-55500000D02*
X49800000Y-55500000D01*
D71*
X60950000Y-87250000D02*
X60950000Y-86000000D01*
X87225000Y-34000000D02*
X86300000Y-34000000D01*
X55675000Y-61500000D02*
X54800000Y-61500000D01*
X27000000Y-82325000D02*
X27000000Y-84500000D01*
X29862500Y-69000000D02*
X30750000Y-69000000D01*
X22175000Y-58000000D02*
X20800000Y-58000000D01*
X65725000Y-49500000D02*
X65200000Y-50100000D01*
X25000000Y-51050000D02*
X26500000Y-51000000D01*
X70050000Y-87250000D02*
X70050000Y-86000000D01*
D74*
X96000000Y-46062500D02*
X96000000Y-44800000D01*
D73*
X32550000Y-56500000D02*
X31800000Y-56500000D01*
D71*
X53750000Y-27539999D02*
X52500000Y-27540000D01*
X27712500Y-43000000D02*
X26500000Y-43000000D01*
D72*
X38500000Y-57000000D02*
X38750000Y-58462500D01*
D71*
X27862500Y-56500000D02*
X27000000Y-56500000D01*
D74*
X86500000Y-26562500D02*
X86500000Y-25500000D01*
D70*
X31550000Y-77000000D02*
X30600000Y-77000000D01*
D73*
X56550000Y-51500000D02*
X55800000Y-51500000D01*
D71*
X60275000Y-56350000D02*
X59500000Y-55500000D01*
D73*
X55550000Y-64000000D02*
X55550000Y-65000000D01*
D70*
X31550000Y-27500000D02*
X30800000Y-27500000D01*
D71*
X85050000Y-51000000D02*
X84200000Y-51000000D01*
D73*
X39000000Y-55538000D02*
X39000000Y-54700000D01*
X37000000Y-52775000D02*
X37800000Y-52775000D01*
D71*
X74025000Y-27365000D02*
X72900000Y-27350000D01*
X27500000Y-78975000D02*
X28500000Y-79000000D01*
X59850000Y-56750000D02*
X58600000Y-56000000D01*
X81175000Y-36000000D02*
X80200000Y-36000000D01*
X88525000Y-71365000D02*
X87000000Y-72000000D01*
D75*
X61500000Y-57500000D02*
X63200000Y-57500000D01*
D70*
X93050000Y-77000000D02*
X92000000Y-75200000D01*
D73*
X48275000Y-59500000D02*
X49100000Y-59500000D01*
%TO.N,/USB + Power/USB_SHIELD*%
D71*
X26325000Y-61500000D02*
X25605000Y-64680000D01*
X23825000Y-58000000D02*
X25000000Y-59000000D01*
X25000000Y-59000000D02*
X26325000Y-61500000D01*
X25600000Y-75500000D02*
X27500000Y-76025000D01*
%TO.N,/USB + Power/USB_PWR_FAULT*%
X47000000Y-63200000D02*
X48000000Y-64000000D01*
X30137500Y-57450000D02*
X31000000Y-58500000D01*
X46000000Y-62200000D02*
X45000000Y-62325000D01*
X46000000Y-62200000D02*
X47000000Y-63200000D01*
%TO.N,/+3V3*%
X38250000Y-59300000D02*
X38000000Y-60000000D01*
X52500000Y-64000000D02*
X52500000Y-65000000D01*
X36550000Y-70500000D02*
X36550000Y-70000000D01*
D70*
X60825000Y-45000000D02*
X61500000Y-44500000D01*
D71*
X38250000Y-58462500D02*
X38250000Y-59300000D01*
D70*
X33450000Y-77000000D02*
X33450000Y-75700000D01*
D71*
X88775000Y-77000000D02*
X88700000Y-75200000D01*
X36175000Y-74000000D02*
X36550000Y-75500000D01*
X94950000Y-77000000D02*
X95500000Y-79000000D01*
X57825000Y-70000000D02*
X59500000Y-69500000D01*
X35000000Y-29550000D02*
X36250000Y-28809999D01*
D70*
X80825000Y-52000000D02*
X80825000Y-53500000D01*
D71*
X48800000Y-80500000D02*
X48825000Y-79500000D01*
D76*
X44800000Y-57000000D02*
X46000000Y-57000000D01*
X68825000Y-53500000D02*
X80825000Y-53500000D01*
D70*
X73800000Y-33200000D02*
X74950000Y-36000000D01*
D71*
X79225000Y-34000000D02*
X79650000Y-35500000D01*
D70*
X79000000Y-32299999D02*
X79225000Y-34000000D01*
X33450000Y-75700000D02*
X36775000Y-75700000D01*
X49500000Y-48500000D02*
X49475000Y-48500000D01*
X80825000Y-53500000D02*
X82000000Y-54500000D01*
X35050000Y-28450000D02*
X36250000Y-28809999D01*
D71*
X72800000Y-28600000D02*
X74025000Y-28635000D01*
D70*
X46300000Y-55500000D02*
X47050000Y-55500000D01*
D71*
X61325000Y-49500000D02*
X64500000Y-49500000D01*
D70*
X34300000Y-29800000D02*
X33275000Y-29800000D01*
D71*
X88775000Y-77000000D02*
X90000000Y-77000000D01*
X88500000Y-76000000D02*
X88775000Y-77000000D01*
X36775000Y-77000000D02*
X36550000Y-75500000D01*
D70*
X72300000Y-31500000D02*
X71450000Y-34000000D01*
X82000000Y-54500000D02*
X84000000Y-56000000D01*
X34000000Y-74800000D02*
X33450000Y-75400000D01*
X68825000Y-52000000D02*
X68825000Y-53500000D01*
D71*
X33275000Y-29800000D02*
X35000000Y-29550000D01*
X88525000Y-73905000D02*
X88500000Y-76000000D01*
X71575000Y-28600000D02*
X72800000Y-28600000D01*
D70*
X46000000Y-57000000D02*
X46000000Y-58700000D01*
D71*
X43325000Y-51500000D02*
X44000000Y-51500000D01*
X36550000Y-75500000D02*
X36550000Y-70500000D01*
D70*
X46000000Y-58700000D02*
X46725000Y-59500000D01*
D71*
X88700000Y-75200000D02*
X88525000Y-73905000D01*
D70*
X84825000Y-59000000D02*
X84000000Y-56000000D01*
X33450000Y-27500000D02*
X34100000Y-27500000D01*
D71*
X57825000Y-67000000D02*
X58800000Y-67000000D01*
D70*
X46000000Y-57000000D02*
X46300000Y-55500000D01*
X72300000Y-31500000D02*
X71575000Y-28600000D01*
X95500000Y-79000000D02*
X94950000Y-77000000D01*
X34100000Y-27500000D02*
X35050000Y-28450000D01*
D71*
X79650000Y-35500000D02*
X79650000Y-38420000D01*
D70*
X76825000Y-52000000D02*
X76825000Y-53500000D01*
D71*
X45000000Y-60675000D02*
X46000000Y-59175000D01*
X44800000Y-83000000D02*
X44825000Y-82000000D01*
D70*
X33450000Y-75400000D02*
X33450000Y-77000000D01*
X90000000Y-77000000D02*
X88775000Y-77000000D01*
X36775000Y-75700000D02*
X36775000Y-77000000D01*
D71*
X55175000Y-57250000D02*
X54500000Y-57250000D01*
%TO.N,/CAN_HS/CAN_HS_H*%
X83325000Y-25500000D02*
X81500000Y-23500000D01*
D74*
X84800000Y-24500000D02*
X84800000Y-27800000D01*
X92000000Y-24500000D02*
X95500000Y-27500000D01*
X84800000Y-27800000D02*
X85550000Y-28437500D01*
X102500000Y-34500000D02*
X103200000Y-36200000D01*
X83325000Y-25500000D02*
X84000000Y-24500000D01*
X84000000Y-24500000D02*
X92000000Y-24500000D01*
D71*
X81500000Y-23500000D02*
X78000000Y-21500000D01*
D74*
X103200000Y-36200000D02*
X104350000Y-37000000D01*
%TO.N,/CAN_HS/CAN_HS_L*%
X97500000Y-31000000D02*
X100580000Y-27500000D01*
D71*
X91000000Y-33000000D02*
X91000000Y-31000000D01*
D74*
X83325000Y-29500000D02*
X84000000Y-31000000D01*
X84000000Y-31000000D02*
X97500000Y-31000000D01*
X88200000Y-31000000D02*
X88200000Y-29100000D01*
X100580000Y-34500000D02*
X99825000Y-37000000D01*
X100580000Y-27500000D02*
X100580000Y-34500000D01*
X88200000Y-29100000D02*
X87450000Y-28437500D01*
%TO.N,/CAN_FT_STB*%
D71*
X36250000Y-36429999D02*
X32500000Y-36430000D01*
X82825000Y-36000000D02*
X82500000Y-38000000D01*
X82500000Y-44770000D02*
X84025000Y-44770000D01*
%TO.N,/UART0_RX*%
X59500000Y-47900000D02*
X53000000Y-47900000D01*
X53000000Y-47900000D02*
X53000000Y-58500000D01*
X59500000Y-33299999D02*
X59500000Y-35200000D01*
X55000000Y-32619999D02*
X55000000Y-33299999D01*
X55000000Y-33299999D02*
X59500000Y-33299999D01*
X53750000Y-32619999D02*
X55000000Y-32619999D01*
X43500000Y-61000000D02*
X40500000Y-60500000D01*
X38500000Y-64599999D02*
X38500000Y-66550000D01*
%TO.N,/USB + Power/L1_5VFT*%
D76*
X64300000Y-56315000D02*
X65500000Y-56315000D01*
X63800000Y-57000000D02*
X64300000Y-56315000D01*
D71*
X61500000Y-57000000D02*
X63800000Y-57000000D01*
%TO.N,/USB + Power/L2_5VFT*%
D76*
X64300000Y-58685000D02*
X65500000Y-58685000D01*
D71*
X61500000Y-58000000D02*
X63800000Y-58000000D01*
D76*
X63800000Y-58000000D02*
X64300000Y-58685000D01*
%TO.N,/CAN_FT/MCP_OSC2*%
D71*
X68500000Y-42500000D02*
X65000000Y-42500000D01*
X65000000Y-42500000D02*
X65000000Y-43850000D01*
X70350000Y-46040000D02*
X69000000Y-46040000D01*
X69000000Y-46040000D02*
X68500000Y-42500000D01*
X65000000Y-43850000D02*
X64775000Y-41000000D01*
%TO.N,/Composite Video/VIDEO_RCA*%
D74*
X104000000Y-64000000D02*
X104000000Y-64000000D01*
X96500000Y-66000000D02*
X99650000Y-66000000D01*
X106000000Y-73000000D02*
X108000000Y-76000000D01*
X95650000Y-68000000D02*
X96500000Y-66000000D01*
X82650000Y-78000000D02*
X83500000Y-78000000D01*
X104000000Y-71050000D02*
X106000000Y-73000000D01*
X101500000Y-68000000D02*
X104000000Y-64000000D01*
X99650000Y-68000000D02*
X101500000Y-68000000D01*
X99650000Y-66000000D02*
X99650000Y-68000000D01*
X101500000Y-68000000D02*
X104000000Y-71050000D01*
X108000000Y-76000000D02*
X110000000Y-80500000D01*
%TO.N,/ESP32 + UI/OLED_SCL*%
D71*
X41500000Y-82000000D02*
X43175000Y-82000000D01*
X38000000Y-86000000D02*
X38000000Y-84500000D01*
X53750000Y-30079999D02*
X55500000Y-30080000D01*
X43200000Y-84000000D02*
X43175000Y-82000000D01*
X38000000Y-84500000D02*
X41500000Y-82000000D01*
%TO.N,/CAN_FT/CAN_FT_H_PHY*%
D74*
X93000000Y-38000000D02*
X92175000Y-39000000D01*
X88975000Y-43500000D02*
X93000000Y-43500000D01*
%TO.N,/CAN_FT/CAN_FT_H*%
X95000000Y-49500000D02*
X100000000Y-49500000D01*
X95050000Y-47937500D02*
X95000000Y-49500000D01*
X94000000Y-50000000D02*
X95000000Y-49500000D01*
D71*
X96500000Y-52000000D02*
X96500000Y-54000000D01*
D74*
X100000000Y-49500000D02*
X103000000Y-47000000D01*
D71*
X106000000Y-58000000D02*
X106000000Y-60000000D01*
D74*
X95650000Y-56000000D02*
X96500000Y-54000000D01*
X93825000Y-39000000D02*
X94000000Y-37500000D01*
X96500000Y-54000000D02*
X96500000Y-50000000D01*
X95000000Y-49500000D02*
X95050000Y-47937500D01*
X96500000Y-50000000D02*
X95050000Y-47937500D01*
%TO.N,/USB + Power/VBUS_RAW*%
D70*
X24000000Y-48500000D02*
X22500000Y-48500000D01*
X22500000Y-50500000D02*
X22500000Y-48500000D01*
X23500000Y-52950000D02*
X22500000Y-50500000D01*
X27862500Y-55550000D02*
X27000000Y-53500000D01*
X26000000Y-55550000D02*
X26000000Y-57450000D01*
D71*
X26180000Y-66600000D02*
X27000000Y-66599999D01*
D70*
X32137500Y-69000000D02*
X31500000Y-69000000D01*
X26000000Y-57450000D02*
X27862500Y-57450000D01*
X30500000Y-50675000D02*
X29000000Y-49500000D01*
D71*
X27000000Y-66200000D02*
X29500000Y-65500000D01*
D70*
X29000000Y-49500000D02*
X24000000Y-48500000D01*
X26180000Y-71400000D02*
X29500000Y-71400000D01*
X26000000Y-55550000D02*
X25000000Y-54000000D01*
X27862500Y-55550000D02*
X26000000Y-55550000D01*
X29500000Y-71400000D02*
X31000000Y-72500000D01*
X29000000Y-51500000D02*
X30500000Y-50675000D01*
D71*
X29500000Y-65500000D02*
X31000000Y-65500000D01*
X27000000Y-66599999D02*
X27000000Y-66200000D01*
D70*
X25000000Y-52950000D02*
X23500000Y-52950000D01*
X27000000Y-53500000D02*
X29000000Y-51500000D01*
%TO.N,/ESP32 + UI/ESP_GPIO0*%
D71*
X60950000Y-82750000D02*
X60000000Y-81200000D01*
X60000000Y-80500000D02*
X59000000Y-80000000D01*
X69500000Y-56500000D02*
X69500000Y-72000000D01*
X59000000Y-80000000D02*
X60000000Y-81200000D01*
X53750000Y-44049999D02*
X54500000Y-44800000D01*
X60000000Y-81200000D02*
X60950000Y-82750000D01*
X57000000Y-72000000D02*
X56175000Y-70000000D01*
X54500000Y-44800000D02*
X55000000Y-46000000D01*
X60950000Y-82750000D02*
X70050000Y-82750000D01*
X48000000Y-72000000D02*
X46937500Y-72000000D01*
X55000000Y-46000000D02*
X62500000Y-46000000D01*
X48000000Y-72000000D02*
X48000000Y-72000000D01*
%TO.N,/CAN_FT/MCP_RESET_N*%
X81000000Y-39690000D02*
X79650000Y-39690000D01*
X67175000Y-52000000D02*
X68000000Y-51000000D01*
X78775000Y-36000000D02*
X78500000Y-37500000D01*
%TO.N,/+5V_FT*%
D70*
X90200000Y-44770000D02*
X91200000Y-44770000D01*
X84025000Y-47310000D02*
X82500000Y-47310000D01*
X62000000Y-59400000D02*
X61000000Y-60225000D01*
D76*
X61000000Y-60225000D02*
X62000000Y-60225000D01*
D70*
X88775000Y-34000000D02*
X90000000Y-34000000D01*
D71*
X88975000Y-44770000D02*
X90200000Y-44770000D01*
X53800000Y-59500000D02*
X53800000Y-62000000D01*
D70*
X64950000Y-62800000D02*
X64950000Y-64000000D01*
X88975000Y-39690000D02*
X90500000Y-39690000D01*
X61775000Y-58650000D02*
X62000000Y-59400000D01*
X86950000Y-51000000D02*
X87800000Y-51000000D01*
D71*
X55675000Y-59500000D02*
X53800000Y-59500000D01*
D70*
X60950000Y-62800000D02*
X60950000Y-64000000D01*
X57450000Y-62800000D02*
X57450000Y-64000000D01*
D71*
X53800000Y-62000000D02*
X57450000Y-62800000D01*
D70*
X71000000Y-57500000D02*
X71000000Y-58500000D01*
%TO.N,/USB + Power/USB_ILIM*%
D71*
X29400000Y-60200000D02*
X29825000Y-61000000D01*
X30137500Y-56500000D02*
X30800000Y-56500000D01*
%TO.N,/ESP32 + UI/OLED_SDA*%
X55100000Y-34800000D02*
X58000000Y-34800000D01*
X46500000Y-84000000D02*
X47175000Y-79500000D01*
X40000000Y-86000000D02*
X43000000Y-86000000D01*
X46500000Y-83500000D02*
X46500000Y-80200000D01*
X43000000Y-86000000D02*
X46500000Y-83500000D01*
X46500000Y-80200000D02*
X47175000Y-79500000D01*
X53750000Y-33889999D02*
X54800000Y-33890000D01*
X54800000Y-33890000D02*
X55100000Y-34800000D01*
%TO.N,/CAN_HS_TX*%
X72200000Y-25000000D02*
X74025000Y-26095000D01*
X53750000Y-41509999D02*
X55200000Y-41500000D01*
X70800000Y-25000000D02*
X72200000Y-25000000D01*
%TO.N,/CAN_HS_RX*%
X65500000Y-34000000D02*
X67500000Y-32500000D01*
X55500000Y-40240000D02*
X55500000Y-38500000D01*
X53750000Y-40239999D02*
X55500000Y-40240000D01*
X60000000Y-37000000D02*
X65500000Y-34000000D01*
X55500000Y-38500000D02*
X60000000Y-37000000D01*
X74000000Y-32500000D02*
X74025000Y-29905000D01*
%TO.N,/CAN_HS/CAN_HS_L_PHY*%
D74*
X81000000Y-29500000D02*
X81675000Y-29500000D01*
X80000000Y-28650000D02*
X81000000Y-29500000D01*
X78975000Y-28635000D02*
X80000000Y-28650000D01*
%TO.N,/CAN_HS/CAN_HS_H_PHY*%
X80000000Y-27350000D02*
X81000000Y-25500000D01*
X78975000Y-27365000D02*
X80000000Y-27350000D01*
X81000000Y-25500000D02*
X81675000Y-25500000D01*
%TO.N,/CAN_FT_CS*%
D71*
X56000000Y-42780000D02*
X58000000Y-42000000D01*
X72000000Y-41600000D02*
X76000000Y-41200000D01*
X76000000Y-41200000D02*
X79650000Y-40960000D01*
X58000000Y-42000000D02*
X60000000Y-40000000D01*
X63000000Y-39000000D02*
X66000000Y-39000000D01*
X68500000Y-41600000D02*
X72000000Y-41600000D01*
X58500000Y-44000000D02*
X58000000Y-42000000D01*
X53750000Y-42779999D02*
X56000000Y-42780000D01*
X66000000Y-39000000D02*
X68500000Y-41600000D01*
X59175000Y-45000000D02*
X58500000Y-44000000D01*
X60000000Y-40000000D02*
X63000000Y-39000000D01*
%TO.N,/ESP32 + UI/ESP_EN*%
X55200000Y-69000000D02*
X56175000Y-67000000D01*
X55000000Y-80000000D02*
X55000000Y-81200000D01*
X46000000Y-64000000D02*
X48000000Y-65000000D01*
X44000000Y-63000000D02*
X46000000Y-64000000D01*
X35400000Y-30080000D02*
X34800000Y-30800000D01*
X46937500Y-67000000D02*
X47600000Y-69500000D01*
X33450000Y-33200000D02*
X28500000Y-33500000D01*
X33450000Y-32000000D02*
X33450000Y-33200000D01*
X54000000Y-80500000D02*
X55000000Y-80000000D01*
X48950000Y-82750000D02*
X58050000Y-82750000D01*
X55000000Y-81200000D02*
X48950000Y-82750000D01*
X34800000Y-30800000D02*
X34200000Y-31200000D01*
X48000000Y-67000000D02*
X46937500Y-67000000D01*
X34200000Y-31200000D02*
X33450000Y-32000000D01*
X48950000Y-82750000D02*
X55000000Y-81200000D01*
X48000000Y-65000000D02*
X48000000Y-67000000D01*
X36250000Y-30079999D02*
X35400000Y-30080000D01*
%TO.N,/ESP32 + UI/USER_BUTTON*%
X36250000Y-31349999D02*
X38000000Y-31350000D01*
X58500000Y-49500000D02*
X59675000Y-49500000D01*
X84000000Y-88500000D02*
X84000000Y-82750000D01*
X84000000Y-82750000D02*
X72950000Y-82750000D01*
%TO.N,/Composite Video/VIDEO_IN*%
X86000000Y-75000000D02*
X86000000Y-69000000D01*
X84825000Y-75000000D02*
X86000000Y-75000000D01*
X86000000Y-69000000D02*
X88525000Y-70095000D01*
X84950000Y-69000000D02*
X86000000Y-69000000D01*
%TO.N,/Composite Video/VIDEO_BUF_OUT*%
X95000000Y-70100000D02*
X96000000Y-70500000D01*
X93475000Y-70095000D02*
X95000000Y-70100000D01*
X95000000Y-70100000D02*
X98175000Y-72000000D01*
X99000000Y-65000000D02*
X99000000Y-64000000D01*
%TO.N,/USB + Power/USB_CC1*%
X27000000Y-80600000D02*
X27000000Y-80675000D01*
X26180000Y-67750000D02*
X24000000Y-67750000D01*
%TO.N,/CAN_FT_ERR*%
X79175000Y-52000000D02*
X80000000Y-52000000D01*
X36250000Y-35159999D02*
X32500000Y-35160000D01*
X82500000Y-43500000D02*
X84025000Y-43500000D01*
%TO.N,/CAN_FT/CAN_FT_L*%
D74*
X100650000Y-56000000D02*
X102000000Y-54000000D01*
D71*
X110000000Y-58000000D02*
X110000000Y-60000000D01*
X106000000Y-50000000D02*
X106000000Y-52000000D01*
D74*
X105000000Y-44000000D02*
X108080000Y-47000000D01*
X101000000Y-44000000D02*
X105000000Y-44000000D01*
X99000000Y-45000000D02*
X101000000Y-44000000D01*
X98000000Y-47900000D02*
X99000000Y-45000000D01*
X106000000Y-52000000D02*
X108080000Y-47000000D01*
X97000000Y-43000000D02*
X101000000Y-44000000D01*
X96950000Y-47937500D02*
X98000000Y-47900000D01*
X102000000Y-54000000D02*
X106000000Y-52000000D01*
X95825000Y-41500000D02*
X97000000Y-43000000D01*
%TO.N,/CAN_FT/MCP_TXCAN*%
D71*
X82500000Y-40960000D02*
X84025000Y-40960000D01*
X70350000Y-38420000D02*
X68800000Y-38420000D01*
%TO.N,/CAN_FT/MCP_RXCAN*%
X82500000Y-42230000D02*
X84025000Y-42230000D01*
X74000000Y-50500000D02*
X75175000Y-52000000D01*
X70350000Y-39690000D02*
X68800000Y-39690000D01*
%TO.N,/CAN_FT_EN*%
X82500000Y-46040000D02*
X84025000Y-46040000D01*
X36250000Y-37699999D02*
X34500000Y-37700000D01*
X85825000Y-36000000D02*
X88000000Y-36000000D01*
X73000000Y-46040000D02*
X75000000Y-46040000D01*
%TO.N,/CAN_FT/TJA_RTH*%
X88975000Y-47310000D02*
X90000000Y-47300000D01*
X90000000Y-47300000D02*
X90000000Y-52500000D01*
X90000000Y-52500000D02*
X88000000Y-54175000D01*
%TO.N,/CAN_FT/TJA_RTL*%
X92000000Y-52500000D02*
X91000000Y-54175000D01*
X88975000Y-46040000D02*
X91500000Y-46000000D01*
X91500000Y-46000000D02*
X92000000Y-52500000D01*
%TO.N,/CAN_FT/CAN_FT_L_PHY*%
D74*
X90500000Y-42200000D02*
X92000000Y-41500000D01*
X88975000Y-42230000D02*
X90500000Y-42200000D01*
X92000000Y-41500000D02*
X94175000Y-41500000D01*
%TO.N,/CAN_FT_INT*%
D71*
X40555000Y-45299999D02*
X40555000Y-47500000D01*
X83500000Y-61000000D02*
X83175000Y-59000000D01*
X80500000Y-64000000D02*
X83500000Y-64000000D01*
X83500000Y-50000000D02*
X83500000Y-53000000D01*
X81000000Y-45300000D02*
X81000000Y-48500000D01*
X83500000Y-64000000D02*
X83500000Y-61000000D01*
X79650000Y-46040000D02*
X81000000Y-45300000D01*
X80500000Y-62000000D02*
X80500000Y-64000000D01*
X81000000Y-48500000D02*
X83500000Y-50000000D01*
%TO.N,/USB + Power/PG_5VFT*%
X59000000Y-57250000D02*
X59850000Y-57250000D01*
X56825000Y-57250000D02*
X56000000Y-56500000D01*
%TO.N,/USB + Power/VAUX_5VFT*%
X57800000Y-57000000D02*
X57800000Y-55000000D01*
X57800000Y-55000000D02*
X58275000Y-55000000D01*
X59850000Y-57750000D02*
X58800000Y-57750000D01*
X58800000Y-57750000D02*
X57800000Y-57000000D01*
%TO.N,/USB + Power/FB_5VFT*%
X60275000Y-59500000D02*
X57325000Y-59500000D01*
X57325000Y-59500000D02*
X57325000Y-61500000D01*
X60275000Y-58690000D02*
X60275000Y-59500000D01*
%TO.N,/USB + Power/EN_5VFT*%
X60775000Y-55400000D02*
X60775000Y-56350000D01*
X55325000Y-53500000D02*
X55325000Y-54500000D01*
%TO.N,/ESP32 + UI/STATUS_LED_A*%
X31175000Y-43000000D02*
X29287500Y-43000000D01*
%TO.N,/ESP32 + UI/DAC2_RESERVED*%
X36250000Y-40239999D02*
X30000000Y-40240000D01*
X30000000Y-40240000D02*
X30000000Y-39000000D01*
%TO.N,/USB + Power/SS_3V3*%
X37037500Y-56250000D02*
X35800000Y-56250000D01*
X35800000Y-56250000D02*
X35800000Y-51225000D01*
X35800000Y-51225000D02*
X37000000Y-51225000D01*
%TO.N,/CAN_FT/FT_TERM_L*%
X97500000Y-56000000D02*
X99350000Y-56000000D01*
X91000000Y-55825000D02*
X92500000Y-57000000D01*
X97500000Y-58000000D02*
X97500000Y-56000000D01*
%TO.N,/CAN_FT/MCP_OSC1*%
X67000000Y-47150000D02*
X67275000Y-48200000D01*
X70350000Y-47310000D02*
X67000000Y-47150000D01*
X67275000Y-48200000D02*
X67275000Y-49500000D01*
%TO.N,/USB + Power/USB_CONN_DP*%
X26180000Y-68750000D02*
X27500000Y-68750000D01*
X26180000Y-69750000D02*
X27000000Y-69750000D01*
X27000000Y-69750000D02*
X27500000Y-70500000D01*
X27500000Y-68750000D02*
X28000000Y-68050000D01*
X28000000Y-68050000D02*
X29862500Y-68050000D01*
%TO.N,/USB + Power/USB_CONN_DM*%
X26180000Y-69250000D02*
X27500000Y-69250000D01*
X27000000Y-68250000D02*
X27500000Y-67000000D01*
X26180000Y-68250000D02*
X27000000Y-68250000D01*
X27500000Y-69250000D02*
X28000000Y-69950000D01*
X28000000Y-69950000D02*
X29862500Y-69950000D01*
%TO.N,/USB + Power/USB_CC2*%
X26180000Y-70750000D02*
X22700000Y-70750000D01*
X29000000Y-83100000D02*
X29000000Y-83175000D01*
%TO.N,/USB + Power/USB_DM*%
X32137500Y-69950000D02*
X34000000Y-69950000D01*
X34000000Y-69950000D02*
X35200000Y-69500000D01*
X35200000Y-69500000D02*
X36550000Y-69500000D01*
%TO.N,/USB + Power/USB_DP*%
X34000000Y-68050000D02*
X35200000Y-69000000D01*
X32137500Y-68050000D02*
X34000000Y-68050000D01*
X35200000Y-69000000D02*
X36550000Y-69000000D01*
%TO.N,/ESP32 + UI/AUTO_Q1_BASE*%
X44300000Y-66599999D02*
X45062500Y-66050000D01*
X52825000Y-71000000D02*
X53500000Y-70500000D01*
%TO.N,/USB_RTS*%
X45062500Y-67950000D02*
X44200000Y-68500000D01*
X44000000Y-67950000D02*
X45062500Y-67950000D01*
X39500000Y-65800000D02*
X40000000Y-64599999D01*
X39500000Y-66550000D02*
X39500000Y-65800000D01*
X40500000Y-73500000D02*
X41175000Y-74500000D01*
X42000000Y-64599999D02*
X44000000Y-67950000D01*
X40000000Y-64599999D02*
X42000000Y-64599999D01*
%TO.N,/USB_DTR*%
X43000000Y-72950000D02*
X45062500Y-72950000D01*
X50300000Y-71500000D02*
X51175000Y-71000000D01*
X42500000Y-69000000D02*
X43000000Y-72950000D01*
X37500000Y-66550000D02*
X37500000Y-65500000D01*
X45062500Y-72950000D02*
X44000000Y-72700000D01*
%TO.N,/Composite Video/VIDEO_SRC*%
D74*
X99825000Y-72000000D02*
X100500000Y-72000000D01*
D71*
X87750000Y-84000000D02*
X88000000Y-83000000D01*
D74*
X94000000Y-67000000D02*
X94350000Y-68000000D01*
%TO.N,/Composite Video/VIDEO_AC_OPTION*%
D71*
X97000000Y-68000000D02*
X98350000Y-68000000D01*
X94250000Y-84000000D02*
X97000000Y-84000000D01*
X97000000Y-84000000D02*
X97000000Y-83000000D01*
%TO.N,/ESP32 + UI/EXP_GPIO14*%
X36250000Y-42779999D02*
X35500000Y-42780000D01*
X34000000Y-47000000D02*
X31000000Y-47000000D01*
X35500000Y-46000000D02*
X34000000Y-47000000D01*
%TO.N,/Composite Video/VIDEO_DAC_SER*%
X82000000Y-70500000D02*
X83050000Y-69000000D01*
X82000000Y-70500000D02*
X82000000Y-75000000D01*
X80825000Y-70500000D02*
X82000000Y-70500000D01*
X82000000Y-75000000D02*
X83175000Y-75000000D01*
%TO.N,/USB + Power/SW_3V3*%
D76*
X41100000Y-57000000D02*
X41800000Y-57000000D01*
X40700000Y-57250000D02*
X41100000Y-57000000D01*
D72*
X39962500Y-57750000D02*
X39962500Y-56750000D01*
D76*
X39962500Y-57250000D02*
X40700000Y-57250000D01*
%TO.N,/ESP32 + UI/AUTO_Q2_BASE*%
D71*
X44200000Y-70500000D02*
X45062500Y-71050000D01*
X42825000Y-74500000D02*
X42800000Y-73500000D01*
%TO.N,/ESP32 + UI/EXP_GPIO34*%
X36250000Y-33889999D02*
X35800000Y-33890000D01*
X30000000Y-34000000D02*
X30000000Y-35000000D01*
%TO.N,/VIDEO_DAC*%
X78000000Y-72000000D02*
X77000000Y-73000000D01*
X34000000Y-72200000D02*
X32000000Y-75000000D01*
X77000000Y-73000000D02*
X78175000Y-75000000D01*
X67000000Y-81000000D02*
X67000000Y-80000000D01*
X78000000Y-68000000D02*
X79175000Y-70500000D01*
X77000000Y-67000000D02*
X78000000Y-68000000D01*
X36250000Y-38969999D02*
X34000000Y-38970000D01*
X78000000Y-68000000D02*
X77000000Y-73000000D01*
%TO.N,/ESP32 + UI/STATUS_LED*%
X33500000Y-42500000D02*
X32825000Y-43000000D01*
X36250000Y-41509999D02*
X34500000Y-41510000D01*
X34500000Y-41510000D02*
X33500000Y-42500000D01*
%TO.N,/CAN_FT_SCK*%
X81000000Y-44000000D02*
X79650000Y-44770000D01*
X53750000Y-37699999D02*
X55500000Y-37700000D01*
%TO.N,/CAN_FT_MISO*%
X53750000Y-36429999D02*
X55000000Y-36430000D01*
X72000000Y-42230000D02*
X79650000Y-42230000D01*
%TO.N,/UART0_TX*%
X51000000Y-58500000D02*
X50500000Y-57500000D01*
X60500000Y-47100000D02*
X51000000Y-47100000D01*
X39000000Y-65400000D02*
X39000000Y-66550000D01*
X51000000Y-47100000D02*
X51000000Y-58500000D01*
X53750000Y-31349999D02*
X60500000Y-31350000D01*
%TO.N,/CAN_FT_MOSI*%
X81500000Y-42800000D02*
X79650000Y-43500000D01*
X53750000Y-28809999D02*
X55500000Y-28810000D01*
%TO.N,/CAN_HS/CAN_HS_TERM*%
D74*
X105650000Y-39000000D02*
X105650000Y-37000000D01*
X97000000Y-39000000D02*
X105650000Y-39000000D01*
X98175000Y-37000000D02*
X97000000Y-37000000D01*
X97000000Y-37000000D02*
X97000000Y-39000000D01*
%TO.N,/Composite Video/VIDEO_PASSIVE*%
D71*
X79825000Y-75000000D02*
X81350000Y-78000000D01*
%TO.N,/USB + Power/USB_VBUS_SENSE*%
X37500000Y-72500000D02*
X37500000Y-71450000D01*
X30500000Y-52325000D02*
X31500000Y-51500000D01*
X31500000Y-51500000D02*
X33500000Y-50675000D01*
%TO.N,/USB + Power/PG_3V3*%
X41675000Y-53000000D02*
X41675000Y-51500000D01*
X40500000Y-54500000D02*
X41675000Y-53000000D01*
X39962500Y-56250000D02*
X40500000Y-54500000D01*
%TO.N,/CAN_FT/FT_TERM_H*%
X86500000Y-57000000D02*
X86500000Y-60000000D01*
X94350000Y-60000000D02*
X94350000Y-56000000D01*
X86500000Y-60000000D02*
X94350000Y-60000000D01*
X88000000Y-55825000D02*
X86500000Y-57000000D01*
%TO.N,/USB + Power/CP2102_RST*%
X38000000Y-71450000D02*
X38000000Y-73000000D01*
X38000000Y-73000000D02*
X37825000Y-74000000D01*
%TD*%
D77*
X35200000Y-55500000D03*
X61775000Y-53000000D03*
X55000000Y-52500000D03*
X35000000Y-60500000D03*
X50000000Y-67500000D03*
X31500000Y-55550000D03*
X41000000Y-59600000D03*
D78*
X35500000Y-68500000D03*
X30750000Y-69000000D03*
X60800000Y-51500000D03*
X81800000Y-34000000D03*
X80200000Y-36000000D03*
X46200000Y-48500000D03*
X67800000Y-43200000D03*
X60950000Y-86000000D03*
X68900000Y-28600000D03*
X69200000Y-49400000D03*
X30600000Y-77000000D03*
X30800000Y-29800000D03*
X65200000Y-50100000D03*
X38000000Y-47000000D03*
X45500000Y-34800000D03*
X28500000Y-64500000D03*
X26500000Y-51000000D03*
X58600000Y-56000000D03*
X63050000Y-65000000D03*
X35200000Y-78200000D03*
X24000000Y-60000000D03*
X64200000Y-47800000D03*
X84175000Y-34500000D03*
X30800000Y-27500000D03*
X86300000Y-34000000D03*
X96000000Y-44800000D03*
X20800000Y-58000000D03*
X71500000Y-37500000D03*
X29000000Y-85250000D03*
X27500000Y-73500000D03*
X35000000Y-64000000D03*
X27000000Y-84500000D03*
X86300000Y-77000000D03*
X63200000Y-57500000D03*
X58800000Y-58250000D03*
X62500000Y-40500000D03*
X84200000Y-51000000D03*
X55550000Y-65000000D03*
X42525000Y-78000000D03*
X86500000Y-42000000D03*
X39000000Y-54700000D03*
X28500000Y-79000000D03*
X35200000Y-26900000D03*
X37800000Y-52775000D03*
X39800000Y-59200000D03*
X31900000Y-59500000D03*
X54800000Y-61500000D03*
X76200000Y-36000000D03*
X31550000Y-30800000D03*
X38000000Y-54700000D03*
X56000000Y-55000000D03*
X52500000Y-27540000D03*
X49800000Y-55500000D03*
X92000000Y-75200000D03*
X26500000Y-43000000D03*
X59050000Y-65000000D03*
X27000000Y-56500000D03*
X70050000Y-86000000D03*
X86500000Y-25500000D03*
X48000000Y-86000000D03*
X73500000Y-65000000D03*
X27500000Y-61000000D03*
X34500000Y-53000000D03*
X72000000Y-86000000D03*
X87000000Y-72000000D03*
X72900000Y-27350000D03*
X71000000Y-87250000D03*
X59400000Y-54000000D03*
X68600000Y-34000000D03*
X55800000Y-51500000D03*
X49100000Y-59500000D03*
X106000000Y-69000000D03*
X60200000Y-61775000D03*
X59500000Y-55500000D03*
X94300000Y-74200000D03*
X39000000Y-70000000D03*
X31800000Y-56500000D03*
X25600000Y-75500000D03*
X46000000Y-62200000D03*
X31000000Y-58500000D03*
X58800000Y-67000000D03*
D77*
X44000000Y-51500000D03*
X49500000Y-48500000D03*
X95500000Y-79000000D03*
X34300000Y-29800000D03*
X40500000Y-49500000D03*
X54500000Y-57250000D03*
X46000000Y-59175000D03*
X46000000Y-57000000D03*
X52000000Y-48000000D03*
X72300000Y-31500000D03*
X73800000Y-33200000D03*
X84000000Y-56000000D03*
X52500000Y-65000000D03*
D78*
X44800000Y-83000000D03*
X59500000Y-69500000D03*
X64500000Y-49500000D03*
D77*
X61500000Y-44500000D03*
X34000000Y-74800000D03*
X79000000Y-32299999D03*
D78*
X48800000Y-80500000D03*
D77*
X38000000Y-60000000D03*
X90000000Y-77000000D03*
D78*
X102500000Y-34500000D03*
X82500000Y-38000000D03*
X76000000Y-49000000D03*
X82500000Y-44770000D03*
X32500000Y-36430000D03*
X38500000Y-64599999D03*
X59500000Y-35200000D03*
X53000000Y-58500000D03*
X56500000Y-41450000D03*
X43500000Y-61000000D03*
X50200000Y-61000000D03*
X53000000Y-61000000D03*
X59500000Y-36500000D03*
X59500000Y-47900000D03*
X102000000Y-81000000D03*
X108000000Y-76000000D03*
X83500000Y-78000000D03*
X55500000Y-30080000D03*
X43200000Y-84000000D03*
X76000000Y-29000000D03*
X93000000Y-38000000D03*
X93000000Y-43500000D03*
X94000000Y-50000000D03*
X94000000Y-37500000D03*
X106000000Y-60000000D03*
X96500000Y-52000000D03*
D77*
X25000000Y-54000000D03*
X27000000Y-63500000D03*
X29400000Y-64000000D03*
X31000000Y-65500000D03*
X31500000Y-69000000D03*
X31000000Y-72500000D03*
D78*
X60000000Y-72000000D03*
X69500000Y-72000000D03*
X48000000Y-72000000D03*
X62500000Y-46000000D03*
X57000000Y-72000000D03*
X60000000Y-80500000D03*
X69500000Y-56500000D03*
D77*
X81000000Y-39690000D03*
X68000000Y-51000000D03*
X78500000Y-37500000D03*
X82500000Y-47310000D03*
X71000000Y-58500000D03*
X90000000Y-34000000D03*
X91200000Y-44770000D03*
D78*
X60950000Y-62800000D03*
D77*
X87800000Y-51000000D03*
D78*
X57450000Y-62800000D03*
X64950000Y-62800000D03*
D77*
X90500000Y-39690000D03*
D78*
X62000000Y-60225000D03*
X29400000Y-60200000D03*
X30800000Y-56500000D03*
X46500000Y-84000000D03*
X58000000Y-34800000D03*
X70800000Y-25000000D03*
X55200000Y-41500000D03*
X67500000Y-32500000D03*
X74000000Y-32500000D03*
X47600000Y-69500000D03*
X55200000Y-69000000D03*
X44000000Y-63000000D03*
X54000000Y-80500000D03*
X28500000Y-33500000D03*
X58500000Y-49500000D03*
X21500000Y-60000000D03*
X38000000Y-31350000D03*
X21500000Y-75500000D03*
X84000000Y-88500000D03*
X99000000Y-65000000D03*
X96000000Y-70500000D03*
X27000000Y-80600000D03*
X24000000Y-67750000D03*
X24000000Y-72000000D03*
X82500000Y-43500000D03*
X32500000Y-35160000D03*
X80000000Y-52000000D03*
X106000000Y-50000000D03*
X110000000Y-60000000D03*
X82500000Y-40960000D03*
X68800000Y-38420000D03*
X68800000Y-39690000D03*
X82500000Y-42230000D03*
X74000000Y-50500000D03*
X88000000Y-36000000D03*
X82500000Y-46040000D03*
X73000000Y-46040000D03*
X78000000Y-46040000D03*
X75000000Y-46040000D03*
X34500000Y-37700000D03*
X80500000Y-62000000D03*
X40555000Y-47500000D03*
X83500000Y-53000000D03*
X81000000Y-66000000D03*
X82000000Y-64000000D03*
X70000000Y-66000000D03*
X81000000Y-58500000D03*
X59000000Y-57250000D03*
X56000000Y-56500000D03*
X55325000Y-54500000D03*
X60775000Y-55400000D03*
X97500000Y-58000000D03*
X92500000Y-57000000D03*
X28000000Y-68050000D03*
X27500000Y-70500000D03*
X27500000Y-67000000D03*
X29000000Y-69950000D03*
X22700000Y-76500000D03*
X22700000Y-74500000D03*
X29000000Y-83100000D03*
X22700000Y-72000000D03*
X22700000Y-70750000D03*
X53500000Y-70500000D03*
X44300000Y-66599999D03*
X44200000Y-68500000D03*
X40500000Y-73500000D03*
X44000000Y-72700000D03*
X37500000Y-65500000D03*
X50300000Y-71500000D03*
X42500000Y-69000000D03*
X100500000Y-72000000D03*
X88000000Y-83000000D03*
X94000000Y-67000000D03*
X97000000Y-83000000D03*
X97000000Y-68000000D03*
X35500000Y-46000000D03*
X35500000Y-42780000D03*
X42800000Y-73500000D03*
X44200000Y-70500000D03*
X35800000Y-33890000D03*
X30000000Y-34000000D03*
X65000000Y-87500000D03*
X78000000Y-72000000D03*
X34000000Y-38970000D03*
X34000000Y-72200000D03*
X32000000Y-75000000D03*
X70000000Y-78000000D03*
X31000000Y-81000000D03*
X67000000Y-81000000D03*
X82000000Y-60000000D03*
X70000000Y-60000000D03*
X55500000Y-37700000D03*
X56000000Y-34000000D03*
X66500000Y-35000000D03*
X81000000Y-44000000D03*
X70000000Y-54500000D03*
X55000000Y-36430000D03*
X67500000Y-34000000D03*
X72000000Y-42230000D03*
X56000000Y-32500000D03*
X60500000Y-35000000D03*
X51000000Y-58500000D03*
X60500000Y-37300000D03*
X60500000Y-47100000D03*
X60500000Y-31350000D03*
X39000000Y-65400000D03*
X81500000Y-42800000D03*
X55500000Y-28810000D03*
X87000000Y-30000000D03*
X31500000Y-51500000D03*
X37500000Y-72500000D03*
X35200000Y-50500000D03*
D79*
X116000000Y-59000000D03*
X114500000Y-75500000D03*
X114500000Y-80500000D03*
X114500000Y-85500000D03*
X110000000Y-80500000D03*
X95500000Y-27500000D03*
X100580000Y-27500000D03*
X105660000Y-27500000D03*
X103000000Y-47000000D03*
X108080000Y-47000000D03*
X113160000Y-47000000D03*
X25105000Y-66110000D03*
X25105000Y-71890000D03*
D80*
X25605000Y-64680000D03*
D81*
X21425000Y-64680000D03*
D80*
X25605000Y-73320000D03*
D81*
X21425000Y-73320000D03*
D78*
X42100000Y-34559999D03*
X42100000Y-35959999D03*
X42800000Y-33859999D03*
X42800000Y-35259999D03*
X42800000Y-36659999D03*
X43500000Y-34559999D03*
X43500000Y-35959999D03*
X44200000Y-33859999D03*
X44200000Y-35259999D03*
X44200000Y-36659999D03*
X44900000Y-34559999D03*
X44900000Y-35959999D03*
X39090000Y-57590000D03*
X39090000Y-56410000D03*
X37910000Y-57590000D03*
X37910000Y-56410000D03*
D79*
X24000000Y-86000000D03*
X34000000Y-86000000D03*
X36000000Y-86000000D03*
X38000000Y-86000000D03*
X40000000Y-86000000D03*
X116000000Y-24000000D03*
X24000000Y-32000000D03*
M02*
