M48
; DRILL file KiCad 10.0.6 date 2026-10-05T10:35:57
; FORMAT={-:-/ absolute / metric / decimal}
; #@! TF.CreationDate,2026-10-05T10:35:57+00:00
; #@! TF.GenerationSoftware,Kicad,Pcbnew,10.0.6
; #@! TF.FileFunction,Plated,1,4,PTH
FMAT,2
METRIC
; #@! TA.AperFunction,Plated,PTH,ViaDrill
T1C0.200
; #@! TA.AperFunction,Plated,PTH,ComponentDrill
T2C0.200
; #@! TA.AperFunction,Plated,PTH,ViaDrill
T3C0.300
; #@! TA.AperFunction,Plated,PTH,ComponentDrill
T4C0.600
; #@! TA.AperFunction,Plated,PTH,ComponentDrill
T5C0.750
; #@! TA.AperFunction,Plated,PTH,ComponentDrill
T6C1.300
; #@! TA.AperFunction,Plated,PTH,ComponentDrill
T7C1.700
; #@! TA.AperFunction,Plated,PTH,ComponentDrill
T8C2.600
%
G90
G05
T1
X20.8Y-58.0
X21.5Y-60.0
X21.5Y-75.5
X22.7Y-70.75
X22.7Y-72.0
X22.7Y-74.5
X22.7Y-76.5
X24.0Y-60.0
X24.0Y-67.75
X24.0Y-72.0
X25.6Y-75.5
X26.5Y-43.0
X26.5Y-51.0
X27.0Y-56.5
X27.0Y-80.6
X27.0Y-84.5
X27.5Y-61.0
X27.5Y-67.0
X27.5Y-70.5
X27.5Y-73.5
X28.0Y-68.05
X28.5Y-33.5
X28.5Y-64.5
X28.5Y-79.0
X29.0Y-69.95
X29.0Y-83.1
X29.0Y-85.25
X29.4Y-60.2
X30.0Y-34.0
X30.6Y-77.0
X30.75Y-69.0
X30.8Y-27.5
X30.8Y-29.8
X30.8Y-56.5
X31.0Y-58.5
X31.0Y-81.0
X31.5Y-51.5
X31.55Y-30.8
X31.8Y-56.5
X31.9Y-59.5
X32.0Y-75.0
X32.5Y-35.16
X32.5Y-36.43
X34.0Y-38.97
X34.0Y-72.2
X34.5Y-37.7
X34.5Y-53.0
X35.0Y-64.0
X35.2Y-26.9
X35.2Y-50.5
X35.2Y-78.2
X35.5Y-42.78
X35.5Y-46.0
X35.5Y-68.5
X35.8Y-33.89
X37.5Y-65.5
X37.5Y-72.5
X37.8Y-52.775
X38.0Y-31.35
X38.0Y-47.0
X38.0Y-54.7
X38.5Y-64.6
X39.0Y-54.7
X39.0Y-65.4
X39.0Y-70.0
X39.8Y-59.2
X40.5Y-73.5
X40.555Y-47.5
X42.5Y-69.0
X42.525Y-78.0
X42.8Y-73.5
X43.2Y-84.0
X43.5Y-61.0
X44.0Y-63.0
X44.0Y-72.7
X44.2Y-68.5
X44.2Y-70.5
X44.3Y-66.6
X44.8Y-83.0
X45.5Y-34.8
X46.0Y-62.2
X46.2Y-48.5
X46.5Y-84.0
X47.6Y-69.5
X48.0Y-72.0
X48.0Y-86.0
X48.8Y-80.5
X49.1Y-59.5
X49.8Y-55.5
X50.2Y-61.0
X50.3Y-71.5
X51.0Y-58.5
X52.5Y-27.54
X53.0Y-58.5
X53.0Y-61.0
X53.5Y-70.5
X54.0Y-80.5
X54.8Y-61.5
X55.0Y-36.43
X55.2Y-41.5
X55.2Y-69.0
X55.325Y-54.5
X55.5Y-28.81
X55.5Y-30.08
X55.5Y-37.7
X55.55Y-65.0
X55.8Y-51.5
X56.0Y-32.5
X56.0Y-34.0
X56.0Y-55.0
X56.0Y-56.5
X56.5Y-41.45
X57.0Y-72.0
X57.45Y-62.8
X58.0Y-34.8
X58.5Y-49.5
X58.6Y-56.0
X58.8Y-58.25
X58.8Y-67.0
X59.0Y-57.25
X59.05Y-65.0
X59.4Y-54.0
X59.5Y-35.2
X59.5Y-36.5
X59.5Y-47.9
X59.5Y-55.5
X59.5Y-69.5
X60.0Y-72.0
X60.0Y-80.5
X60.2Y-61.775
X60.5Y-31.35
X60.5Y-35.0
X60.5Y-37.3
X60.5Y-47.1
X60.775Y-55.4
X60.8Y-51.5
X60.95Y-62.8
X60.95Y-86.0
X62.0Y-60.225
X62.5Y-40.5
X62.5Y-46.0
X63.05Y-65.0
X63.2Y-57.5
X64.2Y-47.8
X64.5Y-49.5
X64.95Y-62.8
X65.0Y-87.5
X65.2Y-50.1
X66.5Y-35.0
X67.0Y-81.0
X67.5Y-32.5
X67.5Y-34.0
X67.8Y-43.2
X68.6Y-34.0
X68.8Y-38.42
X68.8Y-39.69
X68.9Y-28.6
X69.2Y-49.4
X69.5Y-56.5
X69.5Y-72.0
X70.0Y-54.5
X70.0Y-60.0
X70.0Y-66.0
X70.0Y-78.0
X70.05Y-86.0
X70.8Y-25.0
X71.0Y-87.25
X71.5Y-37.5
X72.0Y-42.23
X72.0Y-86.0
X72.9Y-27.35
X73.0Y-46.04
X73.5Y-65.0
X74.0Y-32.5
X74.0Y-50.5
X75.0Y-46.04
X76.0Y-29.0
X76.0Y-49.0
X76.2Y-36.0
X78.0Y-46.04
X78.0Y-72.0
X80.0Y-52.0
X80.2Y-36.0
X80.5Y-62.0
X81.0Y-44.0
X81.0Y-58.5
X81.0Y-66.0
X81.5Y-42.8
X81.8Y-34.0
X82.0Y-60.0
X82.0Y-64.0
X82.5Y-38.0
X82.5Y-40.96
X82.5Y-42.23
X82.5Y-43.5
X82.5Y-44.77
X82.5Y-46.04
X83.5Y-53.0
X83.5Y-78.0
X84.0Y-88.5
X84.175Y-34.5
X84.2Y-51.0
X86.3Y-34.0
X86.3Y-77.0
X86.5Y-25.5
X86.5Y-42.0
X87.0Y-30.0
X87.0Y-72.0
X88.0Y-36.0
X88.0Y-83.0
X92.0Y-75.2
X92.5Y-57.0
X93.0Y-38.0
X93.0Y-43.5
X94.0Y-37.5
X94.0Y-50.0
X94.0Y-67.0
X94.3Y-74.2
X96.0Y-44.8
X96.0Y-70.5
X96.5Y-52.0
X97.0Y-68.0
X97.0Y-83.0
X97.5Y-58.0
X99.0Y-65.0
X100.5Y-72.0
X102.0Y-81.0
X102.5Y-34.5
X106.0Y-50.0
X106.0Y-60.0
X106.0Y-69.0
X108.0Y-76.0
X110.0Y-60.0
T2
X37.91Y-56.41
X37.91Y-57.59
X39.09Y-56.41
X39.09Y-57.59
X42.1Y-34.56
X42.1Y-35.96
X42.8Y-33.86
X42.8Y-35.26
X42.8Y-36.66
X43.5Y-34.56
X43.5Y-35.96
X44.2Y-33.86
X44.2Y-35.26
X44.2Y-36.66
X44.9Y-34.56
X44.9Y-35.96
T3
X25.0Y-54.0
X27.0Y-63.5
X29.4Y-64.0
X31.0Y-65.5
X31.0Y-72.5
X31.5Y-55.55
X31.5Y-69.0
X34.0Y-74.8
X34.3Y-29.8
X35.0Y-60.5
X35.2Y-55.5
X38.0Y-60.0
X40.5Y-49.5
X41.0Y-59.6
X44.0Y-51.5
X46.0Y-57.0
X46.0Y-59.175
X49.5Y-48.5
X50.0Y-67.5
X52.0Y-48.0
X52.5Y-65.0
X54.5Y-57.25
X55.0Y-52.5
X61.5Y-44.5
X61.775Y-53.0
X68.0Y-51.0
X71.0Y-58.5
X72.3Y-31.5
X73.8Y-33.2
X78.5Y-37.5
X79.0Y-32.3
X81.0Y-39.69
X82.5Y-47.31
X84.0Y-56.0
X87.8Y-51.0
X90.0Y-34.0
X90.0Y-77.0
X90.5Y-39.69
X91.2Y-44.77
X95.5Y-79.0
T5
X34.0Y-86.0
X36.0Y-86.0
X38.0Y-86.0
X40.0Y-86.0
T6
X95.5Y-27.5
X100.58Y-27.5
X103.0Y-47.0
X105.66Y-27.5
X108.08Y-47.0
X113.16Y-47.0
T7
X110.0Y-80.5
T8
X114.5Y-75.5
X114.5Y-80.5
X114.5Y-85.5
T4
X21.825Y-64.68G85X21.025Y-64.68
G05
X21.825Y-73.32G85X21.025Y-73.32
G05
X26.155Y-64.68G85X25.055Y-64.68
G05
X26.155Y-73.32G85X25.055Y-73.32
G05
M30
